M48
;DRILL file {kicad (2014-09-19 BZR 5142)-product} date Wed 08 Oct 2014 09:05:46 PM EDT
;FORMAT={-:-/ absolute / inch / decimal}
FMAT,2
INCH,TZ
T1C0.039
T2C0.040
T3C0.055
T4C0.071
%
G90
G05
M72
T1
X2.3575Y-1.7603
X2.3575Y-1.8603
X2.3575Y-1.9603
X2.3575Y-2.0603
X2.3575Y-2.1603
X2.3575Y-2.2603
X2.3575Y-2.3603
X2.3575Y-2.4603
X2.3575Y-2.5603
X2.3575Y-2.6603
X2.3575Y-2.9603
X2.3575Y-3.0603
X2.7575Y-1.7603
X2.7575Y-1.8603
X2.7575Y-1.9603
X2.7575Y-2.0603
X2.7575Y-2.1603
X2.7575Y-2.2603
X2.7575Y-2.3603
X2.7575Y-2.4603
X2.7575Y-2.5603
X2.7575Y-2.6603
X2.7575Y-2.9603
X2.7575Y-3.0603
T2
X2.1106Y-1.7603
X2.1106Y-1.8603
X2.1106Y-1.9603
X2.1106Y-2.0603
X2.1106Y-2.1603
X2.1106Y-2.2603
X2.1106Y-2.3603
X2.1106Y-2.4603
X2.1106Y-2.5603
X2.1106Y-2.6603
X2.1106Y-2.7603
X2.1106Y-2.8603
X2.1106Y-2.9603
X2.1106Y-3.0603
X2.1106Y-3.1603
X2.1106Y-3.2603
X2.2106Y-2.1603
X2.2106Y-2.2603
X2.2106Y-2.3603
X2.2106Y-2.4603
X2.2106Y-2.9603
X2.2106Y-3.0603
X2.2106Y-3.1603
X2.2106Y-3.2603
X2.35Y-3.33
X2.45Y-3.33
X2.6Y-3.33
X2.75Y-3.33
X2.85Y-3.33
X2.95Y-3.33
X2.9606Y-1.7603
X2.9606Y-1.8603
X2.9606Y-1.9603
X2.9606Y-2.0603
X2.9606Y-2.1603
X2.9606Y-2.2603
X2.9606Y-2.3603
X2.9606Y-2.4603
X2.9856Y-1.5853
X3.05Y-3.33
X3.0856Y-1.5853
X3.1856Y-1.5853
X3.1856Y-1.7103
X3.1856Y-1.8103
X3.1856Y-1.9103
X3.1856Y-2.0103
X3.1856Y-2.1103
X3.1856Y-2.2103
X3.1856Y-2.3103
X3.1856Y-2.4103
X3.1856Y-2.6103
X3.1856Y-2.7103
X3.1856Y-2.8103
X3.1856Y-2.9103
X3.1856Y-3.0103
X3.1856Y-3.1103
X3.1856Y-3.2103
X3.1856Y-3.3103
X3.2856Y-1.5853
X3.5856Y-1.7103
X3.5856Y-1.8103
X3.5856Y-1.9103
X3.5856Y-2.0103
X3.5856Y-2.1103
X3.5856Y-2.2103
X3.5856Y-2.3103
X3.5856Y-2.4103
X3.5856Y-2.6103
X3.5856Y-2.7103
X3.5856Y-2.8103
X3.5856Y-2.9103
X3.5856Y-3.0103
X3.5856Y-3.1103
X3.5856Y-3.2103
X3.5856Y-3.3103
X3.7744Y-2.4318
X3.7744Y-2.5318
T3
X3.9644Y-2.4418
X3.9644Y-2.5918
X4.2644Y-2.4418
X4.2644Y-2.5918
T4
X3.7856Y-1.7353
X3.788Y-3.2
X3.9416Y-1.7353
X3.944Y-3.2
X4.0976Y-1.7353
X4.1Y-3.2
T0
M30
