%FSLAX46Y46*%
G04 Gerber Fmt 4.6, Leading zero omitted, Abs format (unit mm)*
G04 Created by KiCad (PCBNEW (2014-09-19 BZR 5142)-product) date Wed 08 Oct 2014 09:05:39 PM EDT*
%MOMM*%
G01*
G04 APERTURE LIST*
%ADD10C,0.100000*%
%ADD11C,0.200000*%
%ADD12C,0.254000*%
%ADD13C,0.304800*%
%ADD14C,0.150000*%
%ADD15C,0.381000*%
%ADD16R,1.998980X1.998980*%
%ADD17C,1.998980*%
%ADD18R,1.879600X1.879600*%
%ADD19C,1.879600*%
%ADD20C,1.727200*%
%ADD21C,2.286000*%
%ADD22C,3.000000*%
G04 APERTURE END LIST*
D10*
D11*
X67676000Y-82088000D02*
X67676000Y-87422000D01*
X93838000Y-52370000D02*
X93838000Y-52624000D01*
X109840000Y-52370000D02*
X93838000Y-52370000D01*
X109840000Y-56434000D02*
X109840000Y-52370000D01*
X93838000Y-56434000D02*
X109840000Y-56434000D01*
X93838000Y-52624000D02*
X93838000Y-56434000D01*
D12*
X94237144Y-54023419D02*
X94237144Y-53007419D01*
X94624191Y-53007419D01*
X94720953Y-53055800D01*
X94769334Y-53104181D01*
X94817715Y-53200943D01*
X94817715Y-53346086D01*
X94769334Y-53442848D01*
X94720953Y-53491229D01*
X94624191Y-53539610D01*
X94237144Y-53539610D01*
X95688572Y-54023419D02*
X95688572Y-53491229D01*
X95640191Y-53394467D01*
X95543429Y-53346086D01*
X95349906Y-53346086D01*
X95253144Y-53394467D01*
X95688572Y-53975038D02*
X95591810Y-54023419D01*
X95349906Y-54023419D01*
X95253144Y-53975038D01*
X95204763Y-53878276D01*
X95204763Y-53781514D01*
X95253144Y-53684752D01*
X95349906Y-53636371D01*
X95591810Y-53636371D01*
X95688572Y-53587990D01*
X96172382Y-53346086D02*
X96172382Y-54362086D01*
X96172382Y-53394467D02*
X96269144Y-53346086D01*
X96462667Y-53346086D01*
X96559429Y-53394467D01*
X96607810Y-53442848D01*
X96656191Y-53539610D01*
X96656191Y-53829895D01*
X96607810Y-53926657D01*
X96559429Y-53975038D01*
X96462667Y-54023419D01*
X96269144Y-54023419D01*
X96172382Y-53975038D01*
X97091620Y-54023419D02*
X97091620Y-53346086D01*
X97091620Y-53007419D02*
X97043239Y-53055800D01*
X97091620Y-53104181D01*
X97140001Y-53055800D01*
X97091620Y-53007419D01*
X97091620Y-53104181D01*
X97720573Y-54023419D02*
X97623811Y-53975038D01*
X97575430Y-53878276D01*
X97575430Y-53007419D01*
X98107620Y-54023419D02*
X98107620Y-53346086D01*
X98107620Y-53007419D02*
X98059239Y-53055800D01*
X98107620Y-53104181D01*
X98156001Y-53055800D01*
X98107620Y-53007419D01*
X98107620Y-53104181D01*
X98736573Y-54023419D02*
X98639811Y-53975038D01*
X98591430Y-53926657D01*
X98543049Y-53829895D01*
X98543049Y-53539610D01*
X98591430Y-53442848D01*
X98639811Y-53394467D01*
X98736573Y-53346086D01*
X98881715Y-53346086D01*
X98978477Y-53394467D01*
X99026858Y-53442848D01*
X99075239Y-53539610D01*
X99075239Y-53829895D01*
X99026858Y-53926657D01*
X98978477Y-53975038D01*
X98881715Y-54023419D01*
X98736573Y-54023419D01*
X100284763Y-54023419D02*
X100284763Y-53007419D01*
X100623429Y-53733133D01*
X100962096Y-53007419D01*
X100962096Y-54023419D01*
X101591049Y-54023419D02*
X101494287Y-53975038D01*
X101445906Y-53926657D01*
X101397525Y-53829895D01*
X101397525Y-53539610D01*
X101445906Y-53442848D01*
X101494287Y-53394467D01*
X101591049Y-53346086D01*
X101736191Y-53346086D01*
X101832953Y-53394467D01*
X101881334Y-53442848D01*
X101929715Y-53539610D01*
X101929715Y-53829895D01*
X101881334Y-53926657D01*
X101832953Y-53975038D01*
X101736191Y-54023419D01*
X101591049Y-54023419D01*
X102220001Y-53346086D02*
X102607049Y-53346086D01*
X102365144Y-53007419D02*
X102365144Y-53878276D01*
X102413525Y-53975038D01*
X102510287Y-54023419D01*
X102607049Y-54023419D01*
X103090858Y-54023419D02*
X102994096Y-53975038D01*
X102945715Y-53926657D01*
X102897334Y-53829895D01*
X102897334Y-53539610D01*
X102945715Y-53442848D01*
X102994096Y-53394467D01*
X103090858Y-53346086D01*
X103236000Y-53346086D01*
X103332762Y-53394467D01*
X103381143Y-53442848D01*
X103429524Y-53539610D01*
X103429524Y-53829895D01*
X103381143Y-53926657D01*
X103332762Y-53975038D01*
X103236000Y-54023419D01*
X103090858Y-54023419D01*
X103864953Y-54023419D02*
X103864953Y-53346086D01*
X103864953Y-53539610D02*
X103913334Y-53442848D01*
X103961715Y-53394467D01*
X104058477Y-53346086D01*
X104155238Y-53346086D01*
X105606666Y-53491229D02*
X105751809Y-53539610D01*
X105800190Y-53587990D01*
X105848571Y-53684752D01*
X105848571Y-53829895D01*
X105800190Y-53926657D01*
X105751809Y-53975038D01*
X105655047Y-54023419D01*
X105268000Y-54023419D01*
X105268000Y-53007419D01*
X105606666Y-53007419D01*
X105703428Y-53055800D01*
X105751809Y-53104181D01*
X105800190Y-53200943D01*
X105800190Y-53297705D01*
X105751809Y-53394467D01*
X105703428Y-53442848D01*
X105606666Y-53491229D01*
X105268000Y-53491229D01*
X106429143Y-54023419D02*
X106332381Y-53975038D01*
X106284000Y-53926657D01*
X106235619Y-53829895D01*
X106235619Y-53539610D01*
X106284000Y-53442848D01*
X106332381Y-53394467D01*
X106429143Y-53346086D01*
X106574285Y-53346086D01*
X106671047Y-53394467D01*
X106719428Y-53442848D01*
X106767809Y-53539610D01*
X106767809Y-53829895D01*
X106719428Y-53926657D01*
X106671047Y-53975038D01*
X106574285Y-54023419D01*
X106429143Y-54023419D01*
X107638666Y-54023419D02*
X107638666Y-53491229D01*
X107590285Y-53394467D01*
X107493523Y-53346086D01*
X107300000Y-53346086D01*
X107203238Y-53394467D01*
X107638666Y-53975038D02*
X107541904Y-54023419D01*
X107300000Y-54023419D01*
X107203238Y-53975038D01*
X107154857Y-53878276D01*
X107154857Y-53781514D01*
X107203238Y-53684752D01*
X107300000Y-53636371D01*
X107541904Y-53636371D01*
X107638666Y-53587990D01*
X108122476Y-54023419D02*
X108122476Y-53346086D01*
X108122476Y-53539610D02*
X108170857Y-53442848D01*
X108219238Y-53394467D01*
X108316000Y-53346086D01*
X108412761Y-53346086D01*
X109186856Y-54023419D02*
X109186856Y-53007419D01*
X109186856Y-53975038D02*
X109090094Y-54023419D01*
X108896571Y-54023419D01*
X108799809Y-53975038D01*
X108751428Y-53926657D01*
X108703047Y-53829895D01*
X108703047Y-53539610D01*
X108751428Y-53442848D01*
X108799809Y-53394467D01*
X108896571Y-53346086D01*
X109090094Y-53346086D01*
X109186856Y-53394467D01*
X95809524Y-55699819D02*
X95470858Y-55216010D01*
X95228953Y-55699819D02*
X95228953Y-54683819D01*
X95616000Y-54683819D01*
X95712762Y-54732200D01*
X95761143Y-54780581D01*
X95809524Y-54877343D01*
X95809524Y-55022486D01*
X95761143Y-55119248D01*
X95712762Y-55167629D01*
X95616000Y-55216010D01*
X95228953Y-55216010D01*
X96777143Y-55699819D02*
X96196572Y-55699819D01*
X96486858Y-55699819D02*
X96486858Y-54683819D01*
X96390096Y-54828962D01*
X96293334Y-54925724D01*
X96196572Y-54974105D01*
X97212572Y-55312771D02*
X97986667Y-55312771D01*
X98470477Y-55699819D02*
X98470477Y-54683819D01*
X99051048Y-55699819D02*
X98615620Y-55119248D01*
X99051048Y-54683819D02*
X98470477Y-55264390D01*
X99341334Y-54683819D02*
X99921905Y-54683819D01*
X99631620Y-55699819D02*
X99631620Y-54683819D01*
X100308953Y-55651438D02*
X100308953Y-55699819D01*
X100260572Y-55796581D01*
X100212191Y-55844962D01*
X101518477Y-55167629D02*
X101857143Y-55167629D01*
X102002286Y-55699819D02*
X101518477Y-55699819D01*
X101518477Y-54683819D01*
X102002286Y-54683819D01*
X102437715Y-55167629D02*
X102776381Y-55167629D01*
X102921524Y-55699819D02*
X102437715Y-55699819D01*
X102437715Y-54683819D01*
X102921524Y-54683819D01*
X103937524Y-55603057D02*
X103889143Y-55651438D01*
X103744000Y-55699819D01*
X103647238Y-55699819D01*
X103502096Y-55651438D01*
X103405334Y-55554676D01*
X103356953Y-55457914D01*
X103308572Y-55264390D01*
X103308572Y-55119248D01*
X103356953Y-54925724D01*
X103405334Y-54828962D01*
X103502096Y-54732200D01*
X103647238Y-54683819D01*
X103744000Y-54683819D01*
X103889143Y-54732200D01*
X103937524Y-54780581D01*
X104372953Y-55167629D02*
X104711619Y-55167629D01*
X104856762Y-55699819D02*
X104372953Y-55699819D01*
X104372953Y-54683819D01*
X104856762Y-54683819D01*
X105921143Y-55216010D02*
X105872762Y-55167629D01*
X105776000Y-55119248D01*
X105679238Y-55119248D01*
X105582476Y-55167629D01*
X105534096Y-55216010D01*
X105485715Y-55312771D01*
X105485715Y-55409533D01*
X105534096Y-55506295D01*
X105582476Y-55554676D01*
X105679238Y-55603057D01*
X105776000Y-55603057D01*
X105872762Y-55554676D01*
X105921143Y-55506295D01*
X105921143Y-55119248D02*
X105921143Y-55506295D01*
X105969524Y-55554676D01*
X106017905Y-55554676D01*
X106114667Y-55506295D01*
X106163048Y-55409533D01*
X106163048Y-55167629D01*
X106066286Y-55022486D01*
X105921143Y-54925724D01*
X105727619Y-54877343D01*
X105534096Y-54925724D01*
X105388953Y-55022486D01*
X105292191Y-55167629D01*
X105243810Y-55361152D01*
X105292191Y-55554676D01*
X105388953Y-55699819D01*
X105534096Y-55796581D01*
X105727619Y-55844962D01*
X105921143Y-55796581D01*
X106066286Y-55699819D01*
X106937143Y-55167629D02*
X107082286Y-55216010D01*
X107130667Y-55264390D01*
X107179048Y-55361152D01*
X107179048Y-55506295D01*
X107130667Y-55603057D01*
X107082286Y-55651438D01*
X106985524Y-55699819D01*
X106598477Y-55699819D01*
X106598477Y-54683819D01*
X106937143Y-54683819D01*
X107033905Y-54732200D01*
X107082286Y-54780581D01*
X107130667Y-54877343D01*
X107130667Y-54974105D01*
X107082286Y-55070867D01*
X107033905Y-55119248D01*
X106937143Y-55167629D01*
X106598477Y-55167629D01*
X107614477Y-54683819D02*
X107614477Y-55506295D01*
X107662858Y-55603057D01*
X107711239Y-55651438D01*
X107808001Y-55699819D01*
X108001524Y-55699819D01*
X108098286Y-55651438D01*
X108146667Y-55603057D01*
X108195048Y-55506295D01*
X108195048Y-54683819D01*
D11*
X73772000Y-39924000D02*
X73264000Y-40432000D01*
X73772000Y-39924000D02*
X73264000Y-39416000D01*
X71994000Y-39924000D02*
X73772000Y-39924000D01*
D12*
X77034572Y-81993619D02*
X77276477Y-83009619D01*
X77470000Y-82283905D01*
X77663524Y-83009619D01*
X77905429Y-81993619D01*
D11*
X66040000Y-83185000D02*
X66675000Y-82550000D01*
D12*
X56615667Y-68031619D02*
X56277001Y-67547810D01*
X56035096Y-68031619D02*
X56035096Y-67015619D01*
X56422143Y-67015619D01*
X56518905Y-67064000D01*
X56567286Y-67112381D01*
X56615667Y-67209143D01*
X56615667Y-67354286D01*
X56567286Y-67451048D01*
X56518905Y-67499429D01*
X56422143Y-67547810D01*
X56035096Y-67547810D01*
X56954334Y-67015619D02*
X57583286Y-67015619D01*
X57244620Y-67402667D01*
X57389762Y-67402667D01*
X57486524Y-67451048D01*
X57534905Y-67499429D01*
X57583286Y-67596190D01*
X57583286Y-67838095D01*
X57534905Y-67934857D01*
X57486524Y-67983238D01*
X57389762Y-68031619D01*
X57099477Y-68031619D01*
X57002715Y-67983238D01*
X56954334Y-67934857D01*
X56131857Y-45171619D02*
X55793191Y-44687810D01*
X55551286Y-45171619D02*
X55551286Y-44155619D01*
X55938333Y-44155619D01*
X56035095Y-44204000D01*
X56083476Y-44252381D01*
X56131857Y-44349143D01*
X56131857Y-44494286D01*
X56083476Y-44591048D01*
X56035095Y-44639429D01*
X55938333Y-44687810D01*
X55551286Y-44687810D01*
X57099476Y-45171619D02*
X56518905Y-45171619D01*
X56809191Y-45171619D02*
X56809191Y-44155619D01*
X56712429Y-44300762D01*
X56615667Y-44397524D01*
X56518905Y-44445905D01*
X57486524Y-44252381D02*
X57534905Y-44204000D01*
X57631667Y-44155619D01*
X57873571Y-44155619D01*
X57970333Y-44204000D01*
X58018714Y-44252381D01*
X58067095Y-44349143D01*
X58067095Y-44445905D01*
X58018714Y-44591048D01*
X57438143Y-45171619D01*
X58067095Y-45171619D01*
X61895238Y-70571619D02*
X61556572Y-70087810D01*
X61314667Y-70571619D02*
X61314667Y-69555619D01*
X61701714Y-69555619D01*
X61798476Y-69604000D01*
X61846857Y-69652381D01*
X61895238Y-69749143D01*
X61895238Y-69894286D01*
X61846857Y-69991048D01*
X61798476Y-70039429D01*
X61701714Y-70087810D01*
X61314667Y-70087810D01*
X62862857Y-70571619D02*
X62282286Y-70571619D01*
X62572572Y-70571619D02*
X62572572Y-69555619D01*
X62475810Y-69700762D01*
X62379048Y-69797524D01*
X62282286Y-69845905D01*
X63249905Y-69652381D02*
X63298286Y-69604000D01*
X63395048Y-69555619D01*
X63636952Y-69555619D01*
X63733714Y-69604000D01*
X63782095Y-69652381D01*
X63830476Y-69749143D01*
X63830476Y-69845905D01*
X63782095Y-69991048D01*
X63201524Y-70571619D01*
X63830476Y-70571619D01*
X65040000Y-70474857D02*
X65088381Y-70523238D01*
X65040000Y-70571619D01*
X64991619Y-70523238D01*
X65040000Y-70474857D01*
X65040000Y-70571619D01*
X65523810Y-70474857D02*
X65572191Y-70523238D01*
X65523810Y-70571619D01*
X65475429Y-70523238D01*
X65523810Y-70474857D01*
X65523810Y-70571619D01*
X66007620Y-70474857D02*
X66056001Y-70523238D01*
X66007620Y-70571619D01*
X65959239Y-70523238D01*
X66007620Y-70474857D01*
X66007620Y-70571619D01*
X67846096Y-70571619D02*
X67507430Y-70087810D01*
X67265525Y-70571619D02*
X67265525Y-69555619D01*
X67652572Y-69555619D01*
X67749334Y-69604000D01*
X67797715Y-69652381D01*
X67846096Y-69749143D01*
X67846096Y-69894286D01*
X67797715Y-69991048D01*
X67749334Y-70039429D01*
X67652572Y-70087810D01*
X67265525Y-70087810D01*
X68184763Y-69555619D02*
X68813715Y-69555619D01*
X68475049Y-69942667D01*
X68620191Y-69942667D01*
X68716953Y-69991048D01*
X68765334Y-70039429D01*
X68813715Y-70136190D01*
X68813715Y-70378095D01*
X68765334Y-70474857D01*
X68716953Y-70523238D01*
X68620191Y-70571619D01*
X68329906Y-70571619D01*
X68233144Y-70523238D01*
X68184763Y-70474857D01*
X63782096Y-74732381D02*
X63830477Y-74684000D01*
X63927239Y-74635619D01*
X64169143Y-74635619D01*
X64265905Y-74684000D01*
X64314286Y-74732381D01*
X64362667Y-74829143D01*
X64362667Y-74925905D01*
X64314286Y-75071048D01*
X63733715Y-75651619D01*
X64362667Y-75651619D01*
X64749715Y-74732381D02*
X64798096Y-74684000D01*
X64894858Y-74635619D01*
X65136762Y-74635619D01*
X65233524Y-74684000D01*
X65281905Y-74732381D01*
X65330286Y-74829143D01*
X65330286Y-74925905D01*
X65281905Y-75071048D01*
X64701334Y-75651619D01*
X65330286Y-75651619D01*
X65959239Y-74635619D02*
X66056000Y-74635619D01*
X66152762Y-74684000D01*
X66201143Y-74732381D01*
X66249524Y-74829143D01*
X66297905Y-75022667D01*
X66297905Y-75264571D01*
X66249524Y-75458095D01*
X66201143Y-75554857D01*
X66152762Y-75603238D01*
X66056000Y-75651619D01*
X65959239Y-75651619D01*
X65862477Y-75603238D01*
X65814096Y-75554857D01*
X65765715Y-75458095D01*
X65717334Y-75264571D01*
X65717334Y-75022667D01*
X65765715Y-74829143D01*
X65814096Y-74732381D01*
X65862477Y-74684000D01*
X65959239Y-74635619D01*
X63782096Y-77272381D02*
X63830477Y-77224000D01*
X63927239Y-77175619D01*
X64169143Y-77175619D01*
X64265905Y-77224000D01*
X64314286Y-77272381D01*
X64362667Y-77369143D01*
X64362667Y-77465905D01*
X64314286Y-77611048D01*
X63733715Y-78191619D01*
X64362667Y-78191619D01*
X64749715Y-77272381D02*
X64798096Y-77224000D01*
X64894858Y-77175619D01*
X65136762Y-77175619D01*
X65233524Y-77224000D01*
X65281905Y-77272381D01*
X65330286Y-77369143D01*
X65330286Y-77465905D01*
X65281905Y-77611048D01*
X64701334Y-78191619D01*
X65330286Y-78191619D01*
X65959239Y-77175619D02*
X66056000Y-77175619D01*
X66152762Y-77224000D01*
X66201143Y-77272381D01*
X66249524Y-77369143D01*
X66297905Y-77562667D01*
X66297905Y-77804571D01*
X66249524Y-77998095D01*
X66201143Y-78094857D01*
X66152762Y-78143238D01*
X66056000Y-78191619D01*
X65959239Y-78191619D01*
X65862477Y-78143238D01*
X65814096Y-78094857D01*
X65765715Y-77998095D01*
X65717334Y-77804571D01*
X65717334Y-77562667D01*
X65765715Y-77369143D01*
X65814096Y-77272381D01*
X65862477Y-77224000D01*
X65959239Y-77175619D01*
X63782096Y-67112381D02*
X63830477Y-67064000D01*
X63927239Y-67015619D01*
X64169143Y-67015619D01*
X64265905Y-67064000D01*
X64314286Y-67112381D01*
X64362667Y-67209143D01*
X64362667Y-67305905D01*
X64314286Y-67451048D01*
X63733715Y-68031619D01*
X64362667Y-68031619D01*
X64749715Y-67112381D02*
X64798096Y-67064000D01*
X64894858Y-67015619D01*
X65136762Y-67015619D01*
X65233524Y-67064000D01*
X65281905Y-67112381D01*
X65330286Y-67209143D01*
X65330286Y-67305905D01*
X65281905Y-67451048D01*
X64701334Y-68031619D01*
X65330286Y-68031619D01*
X65959239Y-67015619D02*
X66056000Y-67015619D01*
X66152762Y-67064000D01*
X66201143Y-67112381D01*
X66249524Y-67209143D01*
X66297905Y-67402667D01*
X66297905Y-67644571D01*
X66249524Y-67838095D01*
X66201143Y-67934857D01*
X66152762Y-67983238D01*
X66056000Y-68031619D01*
X65959239Y-68031619D01*
X65862477Y-67983238D01*
X65814096Y-67934857D01*
X65765715Y-67838095D01*
X65717334Y-67644571D01*
X65717334Y-67402667D01*
X65765715Y-67209143D01*
X65814096Y-67112381D01*
X65862477Y-67064000D01*
X65959239Y-67015619D01*
X63782096Y-64572381D02*
X63830477Y-64524000D01*
X63927239Y-64475619D01*
X64169143Y-64475619D01*
X64265905Y-64524000D01*
X64314286Y-64572381D01*
X64362667Y-64669143D01*
X64362667Y-64765905D01*
X64314286Y-64911048D01*
X63733715Y-65491619D01*
X64362667Y-65491619D01*
X64749715Y-64572381D02*
X64798096Y-64524000D01*
X64894858Y-64475619D01*
X65136762Y-64475619D01*
X65233524Y-64524000D01*
X65281905Y-64572381D01*
X65330286Y-64669143D01*
X65330286Y-64765905D01*
X65281905Y-64911048D01*
X64701334Y-65491619D01*
X65330286Y-65491619D01*
X65959239Y-64475619D02*
X66056000Y-64475619D01*
X66152762Y-64524000D01*
X66201143Y-64572381D01*
X66249524Y-64669143D01*
X66297905Y-64862667D01*
X66297905Y-65104571D01*
X66249524Y-65298095D01*
X66201143Y-65394857D01*
X66152762Y-65443238D01*
X66056000Y-65491619D01*
X65959239Y-65491619D01*
X65862477Y-65443238D01*
X65814096Y-65394857D01*
X65765715Y-65298095D01*
X65717334Y-65104571D01*
X65717334Y-64862667D01*
X65765715Y-64669143D01*
X65814096Y-64572381D01*
X65862477Y-64524000D01*
X65959239Y-64475619D01*
X64265905Y-54654286D02*
X64265905Y-55331619D01*
X64024001Y-54267238D02*
X63782096Y-54992952D01*
X64411048Y-54992952D01*
X64701334Y-54315619D02*
X65378667Y-54315619D01*
X64943239Y-55331619D01*
X65959239Y-54315619D02*
X66056000Y-54315619D01*
X66152762Y-54364000D01*
X66201143Y-54412381D01*
X66249524Y-54509143D01*
X66297905Y-54702667D01*
X66297905Y-54944571D01*
X66249524Y-55138095D01*
X66201143Y-55234857D01*
X66152762Y-55283238D01*
X66056000Y-55331619D01*
X65959239Y-55331619D01*
X65862477Y-55283238D01*
X65814096Y-55234857D01*
X65765715Y-55138095D01*
X65717334Y-54944571D01*
X65717334Y-54702667D01*
X65765715Y-54509143D01*
X65814096Y-54412381D01*
X65862477Y-54364000D01*
X65959239Y-54315619D01*
X64265905Y-57194286D02*
X64265905Y-57871619D01*
X64024001Y-56807238D02*
X63782096Y-57532952D01*
X64411048Y-57532952D01*
X64701334Y-56855619D02*
X65378667Y-56855619D01*
X64943239Y-57871619D01*
X65959239Y-56855619D02*
X66056000Y-56855619D01*
X66152762Y-56904000D01*
X66201143Y-56952381D01*
X66249524Y-57049143D01*
X66297905Y-57242667D01*
X66297905Y-57484571D01*
X66249524Y-57678095D01*
X66201143Y-57774857D01*
X66152762Y-57823238D01*
X66056000Y-57871619D01*
X65959239Y-57871619D01*
X65862477Y-57823238D01*
X65814096Y-57774857D01*
X65765715Y-57678095D01*
X65717334Y-57484571D01*
X65717334Y-57242667D01*
X65765715Y-57049143D01*
X65814096Y-56952381D01*
X65862477Y-56904000D01*
X65959239Y-56855619D01*
X64265905Y-62274286D02*
X64265905Y-62951619D01*
X64024001Y-61887238D02*
X63782096Y-62612952D01*
X64411048Y-62612952D01*
X64701334Y-61935619D02*
X65378667Y-61935619D01*
X64943239Y-62951619D01*
X65959239Y-61935619D02*
X66056000Y-61935619D01*
X66152762Y-61984000D01*
X66201143Y-62032381D01*
X66249524Y-62129143D01*
X66297905Y-62322667D01*
X66297905Y-62564571D01*
X66249524Y-62758095D01*
X66201143Y-62854857D01*
X66152762Y-62903238D01*
X66056000Y-62951619D01*
X65959239Y-62951619D01*
X65862477Y-62903238D01*
X65814096Y-62854857D01*
X65765715Y-62758095D01*
X65717334Y-62564571D01*
X65717334Y-62322667D01*
X65765715Y-62129143D01*
X65814096Y-62032381D01*
X65862477Y-61984000D01*
X65959239Y-61935619D01*
X64265905Y-59734286D02*
X64265905Y-60411619D01*
X64024001Y-59347238D02*
X63782096Y-60072952D01*
X64411048Y-60072952D01*
X64701334Y-59395619D02*
X65378667Y-59395619D01*
X64943239Y-60411619D01*
X65959239Y-59395619D02*
X66056000Y-59395619D01*
X66152762Y-59444000D01*
X66201143Y-59492381D01*
X66249524Y-59589143D01*
X66297905Y-59782667D01*
X66297905Y-60024571D01*
X66249524Y-60218095D01*
X66201143Y-60314857D01*
X66152762Y-60363238D01*
X66056000Y-60411619D01*
X65959239Y-60411619D01*
X65862477Y-60363238D01*
X65814096Y-60314857D01*
X65765715Y-60218095D01*
X65717334Y-60024571D01*
X65717334Y-59782667D01*
X65765715Y-59589143D01*
X65814096Y-59492381D01*
X65862477Y-59444000D01*
X65959239Y-59395619D01*
X64265905Y-49574286D02*
X64265905Y-50251619D01*
X64024001Y-49187238D02*
X63782096Y-49912952D01*
X64411048Y-49912952D01*
X64701334Y-49235619D02*
X65378667Y-49235619D01*
X64943239Y-50251619D01*
X65959239Y-49235619D02*
X66056000Y-49235619D01*
X66152762Y-49284000D01*
X66201143Y-49332381D01*
X66249524Y-49429143D01*
X66297905Y-49622667D01*
X66297905Y-49864571D01*
X66249524Y-50058095D01*
X66201143Y-50154857D01*
X66152762Y-50203238D01*
X66056000Y-50251619D01*
X65959239Y-50251619D01*
X65862477Y-50203238D01*
X65814096Y-50154857D01*
X65765715Y-50058095D01*
X65717334Y-49864571D01*
X65717334Y-49622667D01*
X65765715Y-49429143D01*
X65814096Y-49332381D01*
X65862477Y-49284000D01*
X65959239Y-49235619D01*
X64265905Y-52114286D02*
X64265905Y-52791619D01*
X64024001Y-51727238D02*
X63782096Y-52452952D01*
X64411048Y-52452952D01*
X64701334Y-51775619D02*
X65378667Y-51775619D01*
X64943239Y-52791619D01*
X65959239Y-51775619D02*
X66056000Y-51775619D01*
X66152762Y-51824000D01*
X66201143Y-51872381D01*
X66249524Y-51969143D01*
X66297905Y-52162667D01*
X66297905Y-52404571D01*
X66249524Y-52598095D01*
X66201143Y-52694857D01*
X66152762Y-52743238D01*
X66056000Y-52791619D01*
X65959239Y-52791619D01*
X65862477Y-52743238D01*
X65814096Y-52694857D01*
X65765715Y-52598095D01*
X65717334Y-52404571D01*
X65717334Y-52162667D01*
X65765715Y-51969143D01*
X65814096Y-51872381D01*
X65862477Y-51824000D01*
X65959239Y-51775619D01*
X64265905Y-47034286D02*
X64265905Y-47711619D01*
X64024001Y-46647238D02*
X63782096Y-47372952D01*
X64411048Y-47372952D01*
X64701334Y-46695619D02*
X65378667Y-46695619D01*
X64943239Y-47711619D01*
X65959239Y-46695619D02*
X66056000Y-46695619D01*
X66152762Y-46744000D01*
X66201143Y-46792381D01*
X66249524Y-46889143D01*
X66297905Y-47082667D01*
X66297905Y-47324571D01*
X66249524Y-47518095D01*
X66201143Y-47614857D01*
X66152762Y-47663238D01*
X66056000Y-47711619D01*
X65959239Y-47711619D01*
X65862477Y-47663238D01*
X65814096Y-47614857D01*
X65765715Y-47518095D01*
X65717334Y-47324571D01*
X65717334Y-47082667D01*
X65765715Y-46889143D01*
X65814096Y-46792381D01*
X65862477Y-46744000D01*
X65959239Y-46695619D01*
X64265905Y-44494286D02*
X64265905Y-45171619D01*
X64024001Y-44107238D02*
X63782096Y-44832952D01*
X64411048Y-44832952D01*
X64701334Y-44155619D02*
X65378667Y-44155619D01*
X64943239Y-45171619D01*
X65959239Y-44155619D02*
X66056000Y-44155619D01*
X66152762Y-44204000D01*
X66201143Y-44252381D01*
X66249524Y-44349143D01*
X66297905Y-44542667D01*
X66297905Y-44784571D01*
X66249524Y-44978095D01*
X66201143Y-45074857D01*
X66152762Y-45123238D01*
X66056000Y-45171619D01*
X65959239Y-45171619D01*
X65862477Y-45123238D01*
X65814096Y-45074857D01*
X65765715Y-44978095D01*
X65717334Y-44784571D01*
X65717334Y-44542667D01*
X65765715Y-44349143D01*
X65814096Y-44252381D01*
X65862477Y-44204000D01*
X65959239Y-44155619D01*
X101924429Y-58119571D02*
X102698524Y-58119571D01*
X104682143Y-57442238D02*
X103811286Y-58748524D01*
X106133571Y-57974429D02*
X106278714Y-58022810D01*
X106327095Y-58071190D01*
X106375476Y-58167952D01*
X106375476Y-58313095D01*
X106327095Y-58409857D01*
X106278714Y-58458238D01*
X106181952Y-58506619D01*
X105794905Y-58506619D01*
X105794905Y-57490619D01*
X106133571Y-57490619D01*
X106230333Y-57539000D01*
X106278714Y-57587381D01*
X106327095Y-57684143D01*
X106327095Y-57780905D01*
X106278714Y-57877667D01*
X106230333Y-57926048D01*
X106133571Y-57974429D01*
X105794905Y-57974429D01*
X107294714Y-58506619D02*
X106810905Y-58506619D01*
X106810905Y-57490619D01*
X107633381Y-58506619D02*
X107633381Y-57490619D01*
X108213952Y-58506619D02*
X107778524Y-57926048D01*
X108213952Y-57490619D02*
X107633381Y-58071190D01*
X101876048Y-67644571D02*
X102650143Y-67644571D01*
X102263095Y-68031619D02*
X102263095Y-67257524D01*
X104633762Y-66967238D02*
X103762905Y-68273524D01*
X106327095Y-68031619D02*
X105988429Y-67547810D01*
X105746524Y-68031619D02*
X105746524Y-67015619D01*
X106133571Y-67015619D01*
X106230333Y-67064000D01*
X106278714Y-67112381D01*
X106327095Y-67209143D01*
X106327095Y-67354286D01*
X106278714Y-67451048D01*
X106230333Y-67499429D01*
X106133571Y-67547810D01*
X105746524Y-67547810D01*
X106762524Y-67499429D02*
X107101190Y-67499429D01*
X107246333Y-68031619D02*
X106762524Y-68031619D01*
X106762524Y-67015619D01*
X107246333Y-67015619D01*
X107681762Y-68031619D02*
X107681762Y-67015619D01*
X107923667Y-67015619D01*
X108068809Y-67064000D01*
X108165571Y-67160762D01*
X108213952Y-67257524D01*
X108262333Y-67451048D01*
X108262333Y-67596190D01*
X108213952Y-67789714D01*
X108165571Y-67886476D01*
X108068809Y-67983238D01*
X107923667Y-68031619D01*
X107681762Y-68031619D01*
D11*
X73295000Y-45347000D02*
X72660000Y-45982000D01*
X72660000Y-44712000D02*
X73295000Y-45347000D01*
X73295000Y-45347000D02*
X72660000Y-44712000D01*
X72025000Y-45347000D02*
X73295000Y-45347000D01*
X72025000Y-46617000D02*
X72025000Y-45347000D01*
D12*
X72152000Y-62739951D02*
X72103619Y-62836713D01*
X72103619Y-62981856D01*
X72152000Y-63126998D01*
X72248762Y-63223760D01*
X72345524Y-63272141D01*
X72539048Y-63320522D01*
X72684190Y-63320522D01*
X72877714Y-63272141D01*
X72974476Y-63223760D01*
X73071238Y-63126998D01*
X73119619Y-62981856D01*
X73119619Y-62885094D01*
X73071238Y-62739951D01*
X73022857Y-62691570D01*
X72684190Y-62691570D01*
X72684190Y-62885094D01*
X73071238Y-61869094D02*
X73119619Y-61965856D01*
X73119619Y-62159379D01*
X73071238Y-62256141D01*
X72974476Y-62304522D01*
X72587429Y-62304522D01*
X72490667Y-62256141D01*
X72442286Y-62159379D01*
X72442286Y-61965856D01*
X72490667Y-61869094D01*
X72587429Y-61820713D01*
X72684190Y-61820713D01*
X72780952Y-62304522D01*
X72442286Y-61385284D02*
X73119619Y-61385284D01*
X72539048Y-61385284D02*
X72490667Y-61336903D01*
X72442286Y-61240141D01*
X72442286Y-61094999D01*
X72490667Y-60998237D01*
X72587429Y-60949856D01*
X73119619Y-60949856D01*
X73071238Y-60078999D02*
X73119619Y-60175761D01*
X73119619Y-60369284D01*
X73071238Y-60466046D01*
X72974476Y-60514427D01*
X72587429Y-60514427D01*
X72490667Y-60466046D01*
X72442286Y-60369284D01*
X72442286Y-60175761D01*
X72490667Y-60078999D01*
X72587429Y-60030618D01*
X72684190Y-60030618D01*
X72780952Y-60514427D01*
X73119619Y-59595189D02*
X72442286Y-59595189D01*
X72635810Y-59595189D02*
X72539048Y-59546808D01*
X72490667Y-59498427D01*
X72442286Y-59401665D01*
X72442286Y-59304904D01*
X73119619Y-58530809D02*
X72587429Y-58530809D01*
X72490667Y-58579190D01*
X72442286Y-58675952D01*
X72442286Y-58869475D01*
X72490667Y-58966237D01*
X73071238Y-58530809D02*
X73119619Y-58627571D01*
X73119619Y-58869475D01*
X73071238Y-58966237D01*
X72974476Y-59014618D01*
X72877714Y-59014618D01*
X72780952Y-58966237D01*
X72732571Y-58869475D01*
X72732571Y-58627571D01*
X72684190Y-58530809D01*
X73119619Y-57901856D02*
X73071238Y-57998618D01*
X72974476Y-58046999D01*
X72103619Y-58046999D01*
X73119619Y-56740714D02*
X72103619Y-56740714D01*
X72103619Y-56353667D01*
X72152000Y-56256905D01*
X72200381Y-56208524D01*
X72297143Y-56160143D01*
X72442286Y-56160143D01*
X72539048Y-56208524D01*
X72587429Y-56256905D01*
X72635810Y-56353667D01*
X72635810Y-56740714D01*
X72442286Y-55289286D02*
X73119619Y-55289286D01*
X72442286Y-55724714D02*
X72974476Y-55724714D01*
X73071238Y-55676333D01*
X73119619Y-55579571D01*
X73119619Y-55434429D01*
X73071238Y-55337667D01*
X73022857Y-55289286D01*
X73119619Y-54805476D02*
X72442286Y-54805476D01*
X72635810Y-54805476D02*
X72539048Y-54757095D01*
X72490667Y-54708714D01*
X72442286Y-54611952D01*
X72442286Y-54515191D01*
X72442286Y-54176524D02*
X73458286Y-54176524D01*
X72490667Y-54176524D02*
X72442286Y-54079762D01*
X72442286Y-53886239D01*
X72490667Y-53789477D01*
X72539048Y-53741096D01*
X72635810Y-53692715D01*
X72926095Y-53692715D01*
X73022857Y-53741096D01*
X73071238Y-53789477D01*
X73119619Y-53886239D01*
X73119619Y-54079762D01*
X73071238Y-54176524D01*
X73119619Y-53112143D02*
X73071238Y-53208905D01*
X73022857Y-53257286D01*
X72926095Y-53305667D01*
X72635810Y-53305667D01*
X72539048Y-53257286D01*
X72490667Y-53208905D01*
X72442286Y-53112143D01*
X72442286Y-52967001D01*
X72490667Y-52870239D01*
X72539048Y-52821858D01*
X72635810Y-52773477D01*
X72926095Y-52773477D01*
X73022857Y-52821858D01*
X73071238Y-52870239D01*
X73119619Y-52967001D01*
X73119619Y-53112143D01*
X73071238Y-52386429D02*
X73119619Y-52289667D01*
X73119619Y-52096143D01*
X73071238Y-51999382D01*
X72974476Y-51951001D01*
X72926095Y-51951001D01*
X72829333Y-51999382D01*
X72780952Y-52096143D01*
X72780952Y-52241286D01*
X72732571Y-52338048D01*
X72635810Y-52386429D01*
X72587429Y-52386429D01*
X72490667Y-52338048D01*
X72442286Y-52241286D01*
X72442286Y-52096143D01*
X72490667Y-51999382D01*
X73071238Y-51128525D02*
X73119619Y-51225287D01*
X73119619Y-51418810D01*
X73071238Y-51515572D01*
X72974476Y-51563953D01*
X72587429Y-51563953D01*
X72490667Y-51515572D01*
X72442286Y-51418810D01*
X72442286Y-51225287D01*
X72490667Y-51128525D01*
X72587429Y-51080144D01*
X72684190Y-51080144D01*
X72780952Y-51563953D01*
X73119619Y-49870620D02*
X72103619Y-49870620D01*
X72055238Y-48661096D02*
X73361524Y-49531953D01*
X72103619Y-48128905D02*
X72103619Y-47935382D01*
X72152000Y-47838620D01*
X72248762Y-47741858D01*
X72442286Y-47693477D01*
X72780952Y-47693477D01*
X72974476Y-47741858D01*
X73071238Y-47838620D01*
X73119619Y-47935382D01*
X73119619Y-48128905D01*
X73071238Y-48225667D01*
X72974476Y-48322429D01*
X72780952Y-48370810D01*
X72442286Y-48370810D01*
X72248762Y-48322429D01*
X72152000Y-48225667D01*
X72103619Y-48128905D01*
X103477905Y-69569429D02*
X103623048Y-69617810D01*
X103671429Y-69666190D01*
X103719810Y-69762952D01*
X103719810Y-69908095D01*
X103671429Y-70004857D01*
X103623048Y-70053238D01*
X103526286Y-70101619D01*
X103139239Y-70101619D01*
X103139239Y-69085619D01*
X103477905Y-69085619D01*
X103574667Y-69134000D01*
X103623048Y-69182381D01*
X103671429Y-69279143D01*
X103671429Y-69375905D01*
X103623048Y-69472667D01*
X103574667Y-69521048D01*
X103477905Y-69569429D01*
X103139239Y-69569429D01*
X104590667Y-70101619D02*
X104590667Y-69569429D01*
X104542286Y-69472667D01*
X104445524Y-69424286D01*
X104252001Y-69424286D01*
X104155239Y-69472667D01*
X104590667Y-70053238D02*
X104493905Y-70101619D01*
X104252001Y-70101619D01*
X104155239Y-70053238D01*
X104106858Y-69956476D01*
X104106858Y-69859714D01*
X104155239Y-69762952D01*
X104252001Y-69714571D01*
X104493905Y-69714571D01*
X104590667Y-69666190D01*
X104929334Y-69424286D02*
X105316382Y-69424286D01*
X105074477Y-69085619D02*
X105074477Y-69956476D01*
X105122858Y-70053238D01*
X105219620Y-70101619D01*
X105316382Y-70101619D01*
X105509905Y-69424286D02*
X105896953Y-69424286D01*
X105655048Y-69085619D02*
X105655048Y-69956476D01*
X105703429Y-70053238D01*
X105800191Y-70101619D01*
X105896953Y-70101619D01*
X106622666Y-70053238D02*
X106525904Y-70101619D01*
X106332381Y-70101619D01*
X106235619Y-70053238D01*
X106187238Y-69956476D01*
X106187238Y-69569429D01*
X106235619Y-69472667D01*
X106332381Y-69424286D01*
X106525904Y-69424286D01*
X106622666Y-69472667D01*
X106671047Y-69569429D01*
X106671047Y-69666190D01*
X106187238Y-69762952D01*
X107106476Y-70101619D02*
X107106476Y-69424286D01*
X107106476Y-69617810D02*
X107154857Y-69521048D01*
X107203238Y-69472667D01*
X107300000Y-69424286D01*
X107396761Y-69424286D01*
X107735428Y-70101619D02*
X107735428Y-69424286D01*
X107735428Y-69085619D02*
X107687047Y-69134000D01*
X107735428Y-69182381D01*
X107783809Y-69134000D01*
X107735428Y-69085619D01*
X107735428Y-69182381D01*
X108606285Y-70053238D02*
X108509523Y-70101619D01*
X108316000Y-70101619D01*
X108219238Y-70053238D01*
X108170857Y-69956476D01*
X108170857Y-69569429D01*
X108219238Y-69472667D01*
X108316000Y-69424286D01*
X108509523Y-69424286D01*
X108606285Y-69472667D01*
X108654666Y-69569429D01*
X108654666Y-69666190D01*
X108170857Y-69762952D01*
X109041714Y-70053238D02*
X109138476Y-70101619D01*
X109332000Y-70101619D01*
X109428761Y-70053238D01*
X109477142Y-69956476D01*
X109477142Y-69908095D01*
X109428761Y-69811333D01*
X109332000Y-69762952D01*
X109186857Y-69762952D01*
X109090095Y-69714571D01*
X109041714Y-69617810D01*
X109041714Y-69569429D01*
X109090095Y-69472667D01*
X109186857Y-69424286D01*
X109332000Y-69424286D01*
X109428761Y-69472667D01*
X94781429Y-51305619D02*
X94442763Y-50821810D01*
X94200858Y-51305619D02*
X94200858Y-50289619D01*
X94587905Y-50289619D01*
X94684667Y-50338000D01*
X94733048Y-50386381D01*
X94781429Y-50483143D01*
X94781429Y-50628286D01*
X94733048Y-50725048D01*
X94684667Y-50773429D01*
X94587905Y-50821810D01*
X94200858Y-50821810D01*
X95216858Y-51305619D02*
X95216858Y-50628286D01*
X95216858Y-50289619D02*
X95168477Y-50338000D01*
X95216858Y-50386381D01*
X95265239Y-50338000D01*
X95216858Y-50289619D01*
X95216858Y-50386381D01*
X96136096Y-50628286D02*
X96136096Y-51450762D01*
X96087715Y-51547524D01*
X96039334Y-51595905D01*
X95942573Y-51644286D01*
X95797430Y-51644286D01*
X95700668Y-51595905D01*
X96136096Y-51257238D02*
X96039334Y-51305619D01*
X95845811Y-51305619D01*
X95749049Y-51257238D01*
X95700668Y-51208857D01*
X95652287Y-51112095D01*
X95652287Y-50821810D01*
X95700668Y-50725048D01*
X95749049Y-50676667D01*
X95845811Y-50628286D01*
X96039334Y-50628286D01*
X96136096Y-50676667D01*
X96619906Y-51305619D02*
X96619906Y-50289619D01*
X97055334Y-51305619D02*
X97055334Y-50773429D01*
X97006953Y-50676667D01*
X96910191Y-50628286D01*
X96765049Y-50628286D01*
X96668287Y-50676667D01*
X96619906Y-50725048D01*
X97394001Y-50628286D02*
X97781049Y-50628286D01*
X97539144Y-50289619D02*
X97539144Y-51160476D01*
X97587525Y-51257238D01*
X97684287Y-51305619D01*
X97781049Y-51305619D01*
X98893810Y-51305619D02*
X98893810Y-50289619D01*
X99232476Y-51015333D01*
X99571143Y-50289619D01*
X99571143Y-51305619D01*
X100200096Y-51305619D02*
X100103334Y-51257238D01*
X100054953Y-51208857D01*
X100006572Y-51112095D01*
X100006572Y-50821810D01*
X100054953Y-50725048D01*
X100103334Y-50676667D01*
X100200096Y-50628286D01*
X100345238Y-50628286D01*
X100442000Y-50676667D01*
X100490381Y-50725048D01*
X100538762Y-50821810D01*
X100538762Y-51112095D01*
X100490381Y-51208857D01*
X100442000Y-51257238D01*
X100345238Y-51305619D01*
X100200096Y-51305619D01*
X100829048Y-50628286D02*
X101216096Y-50628286D01*
X100974191Y-50289619D02*
X100974191Y-51160476D01*
X101022572Y-51257238D01*
X101119334Y-51305619D01*
X101216096Y-51305619D01*
X101699905Y-51305619D02*
X101603143Y-51257238D01*
X101554762Y-51208857D01*
X101506381Y-51112095D01*
X101506381Y-50821810D01*
X101554762Y-50725048D01*
X101603143Y-50676667D01*
X101699905Y-50628286D01*
X101845047Y-50628286D01*
X101941809Y-50676667D01*
X101990190Y-50725048D01*
X102038571Y-50821810D01*
X102038571Y-51112095D01*
X101990190Y-51208857D01*
X101941809Y-51257238D01*
X101845047Y-51305619D01*
X101699905Y-51305619D01*
X102474000Y-51305619D02*
X102474000Y-50628286D01*
X102474000Y-50821810D02*
X102522381Y-50725048D01*
X102570762Y-50676667D01*
X102667524Y-50628286D01*
X102764285Y-50628286D01*
X94200858Y-74927619D02*
X93717049Y-74927619D01*
X93717049Y-73911619D01*
X94926572Y-74879238D02*
X94829810Y-74927619D01*
X94636287Y-74927619D01*
X94539525Y-74879238D01*
X94491144Y-74782476D01*
X94491144Y-74395429D01*
X94539525Y-74298667D01*
X94636287Y-74250286D01*
X94829810Y-74250286D01*
X94926572Y-74298667D01*
X94974953Y-74395429D01*
X94974953Y-74492190D01*
X94491144Y-74588952D01*
X95265239Y-74250286D02*
X95652287Y-74250286D01*
X95410382Y-74927619D02*
X95410382Y-74056762D01*
X95458763Y-73960000D01*
X95555525Y-73911619D01*
X95652287Y-73911619D01*
X95845810Y-74250286D02*
X96232858Y-74250286D01*
X95990953Y-73911619D02*
X95990953Y-74782476D01*
X96039334Y-74879238D01*
X96136096Y-74927619D01*
X96232858Y-74927619D01*
X97345619Y-74927619D02*
X97345619Y-73911619D01*
X97684285Y-74637333D01*
X98022952Y-73911619D01*
X98022952Y-74927619D01*
X98651905Y-74927619D02*
X98555143Y-74879238D01*
X98506762Y-74830857D01*
X98458381Y-74734095D01*
X98458381Y-74443810D01*
X98506762Y-74347048D01*
X98555143Y-74298667D01*
X98651905Y-74250286D01*
X98797047Y-74250286D01*
X98893809Y-74298667D01*
X98942190Y-74347048D01*
X98990571Y-74443810D01*
X98990571Y-74734095D01*
X98942190Y-74830857D01*
X98893809Y-74879238D01*
X98797047Y-74927619D01*
X98651905Y-74927619D01*
X99280857Y-74250286D02*
X99667905Y-74250286D01*
X99426000Y-73911619D02*
X99426000Y-74782476D01*
X99474381Y-74879238D01*
X99571143Y-74927619D01*
X99667905Y-74927619D01*
X100151714Y-74927619D02*
X100054952Y-74879238D01*
X100006571Y-74830857D01*
X99958190Y-74734095D01*
X99958190Y-74443810D01*
X100006571Y-74347048D01*
X100054952Y-74298667D01*
X100151714Y-74250286D01*
X100296856Y-74250286D01*
X100393618Y-74298667D01*
X100441999Y-74347048D01*
X100490380Y-74443810D01*
X100490380Y-74734095D01*
X100441999Y-74830857D01*
X100393618Y-74879238D01*
X100296856Y-74927619D01*
X100151714Y-74927619D01*
X100925809Y-74927619D02*
X100925809Y-74250286D01*
X100925809Y-74443810D02*
X100974190Y-74347048D01*
X101022571Y-74298667D01*
X101119333Y-74250286D01*
X101216094Y-74250286D01*
X78834619Y-56111761D02*
X77818619Y-56111761D01*
X77818619Y-55869856D01*
X77867000Y-55724714D01*
X77963762Y-55627952D01*
X78060524Y-55579571D01*
X78254048Y-55531190D01*
X78399190Y-55531190D01*
X78592714Y-55579571D01*
X78689476Y-55627952D01*
X78786238Y-55724714D01*
X78834619Y-55869856D01*
X78834619Y-56111761D01*
X78834619Y-54515190D02*
X78350810Y-54853856D01*
X78834619Y-55095761D02*
X77818619Y-55095761D01*
X77818619Y-54708714D01*
X77867000Y-54611952D01*
X77915381Y-54563571D01*
X78012143Y-54515190D01*
X78157286Y-54515190D01*
X78254048Y-54563571D01*
X78302429Y-54611952D01*
X78350810Y-54708714D01*
X78350810Y-55095761D01*
X77818619Y-54224904D02*
X78834619Y-53886237D01*
X77818619Y-53547571D01*
X78254048Y-53063761D02*
X78205667Y-53160523D01*
X78157286Y-53208904D01*
X78060524Y-53257285D01*
X78012143Y-53257285D01*
X77915381Y-53208904D01*
X77867000Y-53160523D01*
X77818619Y-53063761D01*
X77818619Y-52870238D01*
X77867000Y-52773476D01*
X77915381Y-52725095D01*
X78012143Y-52676714D01*
X78060524Y-52676714D01*
X78157286Y-52725095D01*
X78205667Y-52773476D01*
X78254048Y-52870238D01*
X78254048Y-53063761D01*
X78302429Y-53160523D01*
X78350810Y-53208904D01*
X78447571Y-53257285D01*
X78641095Y-53257285D01*
X78737857Y-53208904D01*
X78786238Y-53160523D01*
X78834619Y-53063761D01*
X78834619Y-52870238D01*
X78786238Y-52773476D01*
X78737857Y-52725095D01*
X78641095Y-52676714D01*
X78447571Y-52676714D01*
X78350810Y-52725095D01*
X78302429Y-52773476D01*
X78254048Y-52870238D01*
X78254048Y-52096142D02*
X78205667Y-52192904D01*
X78157286Y-52241285D01*
X78060524Y-52289666D01*
X78012143Y-52289666D01*
X77915381Y-52241285D01*
X77867000Y-52192904D01*
X77818619Y-52096142D01*
X77818619Y-51902619D01*
X77867000Y-51805857D01*
X77915381Y-51757476D01*
X78012143Y-51709095D01*
X78060524Y-51709095D01*
X78157286Y-51757476D01*
X78205667Y-51805857D01*
X78254048Y-51902619D01*
X78254048Y-52096142D01*
X78302429Y-52192904D01*
X78350810Y-52241285D01*
X78447571Y-52289666D01*
X78641095Y-52289666D01*
X78737857Y-52241285D01*
X78786238Y-52192904D01*
X78834619Y-52096142D01*
X78834619Y-51902619D01*
X78786238Y-51805857D01*
X78737857Y-51757476D01*
X78641095Y-51709095D01*
X78447571Y-51709095D01*
X78350810Y-51757476D01*
X78302429Y-51805857D01*
X78254048Y-51902619D01*
X77818619Y-51370428D02*
X77818619Y-50741476D01*
X78205667Y-51080142D01*
X78205667Y-50935000D01*
X78254048Y-50838238D01*
X78302429Y-50789857D01*
X78399190Y-50741476D01*
X78641095Y-50741476D01*
X78737857Y-50789857D01*
X78786238Y-50838238D01*
X78834619Y-50935000D01*
X78834619Y-51225285D01*
X78786238Y-51322047D01*
X78737857Y-51370428D01*
X77818619Y-50402809D02*
X77818619Y-49773857D01*
X78205667Y-50112523D01*
X78205667Y-49967381D01*
X78254048Y-49870619D01*
X78302429Y-49822238D01*
X78399190Y-49773857D01*
X78641095Y-49773857D01*
X78737857Y-49822238D01*
X78786238Y-49870619D01*
X78834619Y-49967381D01*
X78834619Y-50257666D01*
X78786238Y-50354428D01*
X78737857Y-50402809D01*
X78834619Y-78971761D02*
X77818619Y-78971761D01*
X77818619Y-78729856D01*
X77867000Y-78584714D01*
X77963762Y-78487952D01*
X78060524Y-78439571D01*
X78254048Y-78391190D01*
X78399190Y-78391190D01*
X78592714Y-78439571D01*
X78689476Y-78487952D01*
X78786238Y-78584714D01*
X78834619Y-78729856D01*
X78834619Y-78971761D01*
X78834619Y-77375190D02*
X78350810Y-77713856D01*
X78834619Y-77955761D02*
X77818619Y-77955761D01*
X77818619Y-77568714D01*
X77867000Y-77471952D01*
X77915381Y-77423571D01*
X78012143Y-77375190D01*
X78157286Y-77375190D01*
X78254048Y-77423571D01*
X78302429Y-77471952D01*
X78350810Y-77568714D01*
X78350810Y-77955761D01*
X77818619Y-77084904D02*
X78834619Y-76746237D01*
X77818619Y-76407571D01*
X78254048Y-75923761D02*
X78205667Y-76020523D01*
X78157286Y-76068904D01*
X78060524Y-76117285D01*
X78012143Y-76117285D01*
X77915381Y-76068904D01*
X77867000Y-76020523D01*
X77818619Y-75923761D01*
X77818619Y-75730238D01*
X77867000Y-75633476D01*
X77915381Y-75585095D01*
X78012143Y-75536714D01*
X78060524Y-75536714D01*
X78157286Y-75585095D01*
X78205667Y-75633476D01*
X78254048Y-75730238D01*
X78254048Y-75923761D01*
X78302429Y-76020523D01*
X78350810Y-76068904D01*
X78447571Y-76117285D01*
X78641095Y-76117285D01*
X78737857Y-76068904D01*
X78786238Y-76020523D01*
X78834619Y-75923761D01*
X78834619Y-75730238D01*
X78786238Y-75633476D01*
X78737857Y-75585095D01*
X78641095Y-75536714D01*
X78447571Y-75536714D01*
X78350810Y-75585095D01*
X78302429Y-75633476D01*
X78254048Y-75730238D01*
X78254048Y-74956142D02*
X78205667Y-75052904D01*
X78157286Y-75101285D01*
X78060524Y-75149666D01*
X78012143Y-75149666D01*
X77915381Y-75101285D01*
X77867000Y-75052904D01*
X77818619Y-74956142D01*
X77818619Y-74762619D01*
X77867000Y-74665857D01*
X77915381Y-74617476D01*
X78012143Y-74569095D01*
X78060524Y-74569095D01*
X78157286Y-74617476D01*
X78205667Y-74665857D01*
X78254048Y-74762619D01*
X78254048Y-74956142D01*
X78302429Y-75052904D01*
X78350810Y-75101285D01*
X78447571Y-75149666D01*
X78641095Y-75149666D01*
X78737857Y-75101285D01*
X78786238Y-75052904D01*
X78834619Y-74956142D01*
X78834619Y-74762619D01*
X78786238Y-74665857D01*
X78737857Y-74617476D01*
X78641095Y-74569095D01*
X78447571Y-74569095D01*
X78350810Y-74617476D01*
X78302429Y-74665857D01*
X78254048Y-74762619D01*
X77818619Y-74230428D02*
X77818619Y-73601476D01*
X78205667Y-73940142D01*
X78205667Y-73795000D01*
X78254048Y-73698238D01*
X78302429Y-73649857D01*
X78399190Y-73601476D01*
X78641095Y-73601476D01*
X78737857Y-73649857D01*
X78786238Y-73698238D01*
X78834619Y-73795000D01*
X78834619Y-74085285D01*
X78786238Y-74182047D01*
X78737857Y-74230428D01*
X77818619Y-73262809D02*
X77818619Y-72633857D01*
X78205667Y-72972523D01*
X78205667Y-72827381D01*
X78254048Y-72730619D01*
X78302429Y-72682238D01*
X78399190Y-72633857D01*
X78641095Y-72633857D01*
X78737857Y-72682238D01*
X78786238Y-72730619D01*
X78834619Y-72827381D01*
X78834619Y-73117666D01*
X78786238Y-73214428D01*
X78737857Y-73262809D01*
X85487001Y-39710619D02*
X85728906Y-40726619D01*
X85922429Y-40000905D01*
X86115953Y-40726619D01*
X86357858Y-39710619D01*
X87712525Y-40242810D02*
X87712525Y-40726619D01*
X87373858Y-39710619D02*
X87712525Y-40242810D01*
X88051191Y-39710619D01*
X89744524Y-40726619D02*
X89405858Y-40242810D01*
X89163953Y-40726619D02*
X89163953Y-39710619D01*
X89551000Y-39710619D01*
X89647762Y-39759000D01*
X89696143Y-39807381D01*
X89744524Y-39904143D01*
X89744524Y-40049286D01*
X89696143Y-40146048D01*
X89647762Y-40194429D01*
X89551000Y-40242810D01*
X89163953Y-40242810D01*
X91292714Y-40194429D02*
X91437857Y-40242810D01*
X91486238Y-40291190D01*
X91534619Y-40387952D01*
X91534619Y-40533095D01*
X91486238Y-40629857D01*
X91437857Y-40678238D01*
X91341095Y-40726619D01*
X90954048Y-40726619D01*
X90954048Y-39710619D01*
X91292714Y-39710619D01*
X91389476Y-39759000D01*
X91437857Y-39807381D01*
X91486238Y-39904143D01*
X91486238Y-40000905D01*
X91437857Y-40097667D01*
X91389476Y-40146048D01*
X91292714Y-40194429D01*
X90954048Y-40194429D01*
X74930001Y-82525810D02*
X74930001Y-83009619D01*
X74591334Y-81993619D02*
X74930001Y-82525810D01*
X75268667Y-81993619D01*
X72704476Y-83009619D02*
X72365810Y-82525810D01*
X72123905Y-83009619D02*
X72123905Y-81993619D01*
X72510952Y-81993619D01*
X72607714Y-82042000D01*
X72656095Y-82090381D01*
X72704476Y-82187143D01*
X72704476Y-82332286D01*
X72656095Y-82429048D01*
X72607714Y-82477429D01*
X72510952Y-82525810D01*
X72123905Y-82525810D01*
X69922571Y-82477429D02*
X70067714Y-82525810D01*
X70116095Y-82574190D01*
X70164476Y-82670952D01*
X70164476Y-82816095D01*
X70116095Y-82912857D01*
X70067714Y-82961238D01*
X69970952Y-83009619D01*
X69583905Y-83009619D01*
X69583905Y-81993619D01*
X69922571Y-81993619D01*
X70019333Y-82042000D01*
X70067714Y-82090381D01*
X70116095Y-82187143D01*
X70116095Y-82283905D01*
X70067714Y-82380667D01*
X70019333Y-82429048D01*
X69922571Y-82477429D01*
X69583905Y-82477429D01*
X68688858Y-86795429D02*
X69027524Y-86795429D01*
X69172667Y-87327619D02*
X68688858Y-87327619D01*
X68688858Y-86311619D01*
X69172667Y-86311619D01*
X69608096Y-86650286D02*
X69608096Y-87327619D01*
X69608096Y-86747048D02*
X69656477Y-86698667D01*
X69753239Y-86650286D01*
X69898381Y-86650286D01*
X69995143Y-86698667D01*
X70043524Y-86795429D01*
X70043524Y-87327619D01*
X70962762Y-87279238D02*
X70866000Y-87327619D01*
X70672477Y-87327619D01*
X70575715Y-87279238D01*
X70527334Y-87230857D01*
X70478953Y-87134095D01*
X70478953Y-86843810D01*
X70527334Y-86747048D01*
X70575715Y-86698667D01*
X70672477Y-86650286D01*
X70866000Y-86650286D01*
X70962762Y-86698667D01*
X71543334Y-87327619D02*
X71446572Y-87279238D01*
X71398191Y-87230857D01*
X71349810Y-87134095D01*
X71349810Y-86843810D01*
X71398191Y-86747048D01*
X71446572Y-86698667D01*
X71543334Y-86650286D01*
X71688476Y-86650286D01*
X71785238Y-86698667D01*
X71833619Y-86747048D01*
X71882000Y-86843810D01*
X71882000Y-87134095D01*
X71833619Y-87230857D01*
X71785238Y-87279238D01*
X71688476Y-87327619D01*
X71543334Y-87327619D01*
X72752857Y-87327619D02*
X72752857Y-86311619D01*
X72752857Y-87279238D02*
X72656095Y-87327619D01*
X72462572Y-87327619D01*
X72365810Y-87279238D01*
X72317429Y-87230857D01*
X72269048Y-87134095D01*
X72269048Y-86843810D01*
X72317429Y-86747048D01*
X72365810Y-86698667D01*
X72462572Y-86650286D01*
X72656095Y-86650286D01*
X72752857Y-86698667D01*
X73623714Y-87279238D02*
X73526952Y-87327619D01*
X73333429Y-87327619D01*
X73236667Y-87279238D01*
X73188286Y-87182476D01*
X73188286Y-86795429D01*
X73236667Y-86698667D01*
X73333429Y-86650286D01*
X73526952Y-86650286D01*
X73623714Y-86698667D01*
X73672095Y-86795429D01*
X73672095Y-86892190D01*
X73188286Y-86988952D01*
X74107524Y-87327619D02*
X74107524Y-86650286D01*
X74107524Y-86843810D02*
X74155905Y-86747048D01*
X74204286Y-86698667D01*
X74301048Y-86650286D01*
X74397809Y-86650286D01*
X74688095Y-87279238D02*
X74784857Y-87327619D01*
X74978381Y-87327619D01*
X75075142Y-87279238D01*
X75123523Y-87182476D01*
X75123523Y-87134095D01*
X75075142Y-87037333D01*
X74978381Y-86988952D01*
X74833238Y-86988952D01*
X74736476Y-86940571D01*
X74688095Y-86843810D01*
X74688095Y-86795429D01*
X74736476Y-86698667D01*
X74833238Y-86650286D01*
X74978381Y-86650286D01*
X75075142Y-86698667D01*
D11*
X66040000Y-83185000D02*
X65405000Y-82550000D01*
X66040000Y-81788000D02*
X66040000Y-83185000D01*
D12*
X61008382Y-81231619D02*
X61008382Y-80215619D01*
X61395429Y-80215619D01*
X61492191Y-80264000D01*
X61540572Y-80312381D01*
X61588953Y-80409143D01*
X61588953Y-80554286D01*
X61540572Y-80651048D01*
X61492191Y-80699429D01*
X61395429Y-80747810D01*
X61008382Y-80747810D01*
X62459810Y-81231619D02*
X62459810Y-80699429D01*
X62411429Y-80602667D01*
X62314667Y-80554286D01*
X62121144Y-80554286D01*
X62024382Y-80602667D01*
X62459810Y-81183238D02*
X62363048Y-81231619D01*
X62121144Y-81231619D01*
X62024382Y-81183238D01*
X61976001Y-81086476D01*
X61976001Y-80989714D01*
X62024382Y-80892952D01*
X62121144Y-80844571D01*
X62363048Y-80844571D01*
X62459810Y-80796190D01*
X62943620Y-80554286D02*
X62943620Y-81570286D01*
X62943620Y-80602667D02*
X63040382Y-80554286D01*
X63233905Y-80554286D01*
X63330667Y-80602667D01*
X63379048Y-80651048D01*
X63427429Y-80747810D01*
X63427429Y-81038095D01*
X63379048Y-81134857D01*
X63330667Y-81183238D01*
X63233905Y-81231619D01*
X63040382Y-81231619D01*
X62943620Y-81183238D01*
X63862858Y-81231619D02*
X63862858Y-80554286D01*
X63862858Y-80215619D02*
X63814477Y-80264000D01*
X63862858Y-80312381D01*
X63911239Y-80264000D01*
X63862858Y-80215619D01*
X63862858Y-80312381D01*
X64491811Y-81231619D02*
X64395049Y-81183238D01*
X64346668Y-81086476D01*
X64346668Y-80215619D01*
X64878858Y-81231619D02*
X64878858Y-80554286D01*
X64878858Y-80215619D02*
X64830477Y-80264000D01*
X64878858Y-80312381D01*
X64927239Y-80264000D01*
X64878858Y-80215619D01*
X64878858Y-80312381D01*
X65507811Y-81231619D02*
X65411049Y-81183238D01*
X65362668Y-81134857D01*
X65314287Y-81038095D01*
X65314287Y-80747810D01*
X65362668Y-80651048D01*
X65411049Y-80602667D01*
X65507811Y-80554286D01*
X65652953Y-80554286D01*
X65749715Y-80602667D01*
X65798096Y-80651048D01*
X65846477Y-80747810D01*
X65846477Y-81038095D01*
X65798096Y-81134857D01*
X65749715Y-81183238D01*
X65652953Y-81231619D01*
X65507811Y-81231619D01*
X67056001Y-81231619D02*
X67056001Y-80215619D01*
X67443048Y-80215619D01*
X67539810Y-80264000D01*
X67588191Y-80312381D01*
X67636572Y-80409143D01*
X67636572Y-80554286D01*
X67588191Y-80651048D01*
X67539810Y-80699429D01*
X67443048Y-80747810D01*
X67056001Y-80747810D01*
X68217144Y-81231619D02*
X68120382Y-81183238D01*
X68072001Y-81134857D01*
X68023620Y-81038095D01*
X68023620Y-80747810D01*
X68072001Y-80651048D01*
X68120382Y-80602667D01*
X68217144Y-80554286D01*
X68362286Y-80554286D01*
X68459048Y-80602667D01*
X68507429Y-80651048D01*
X68555810Y-80747810D01*
X68555810Y-81038095D01*
X68507429Y-81134857D01*
X68459048Y-81183238D01*
X68362286Y-81231619D01*
X68217144Y-81231619D01*
X68894477Y-80554286D02*
X69088001Y-81231619D01*
X69281524Y-80747810D01*
X69475048Y-81231619D01*
X69668572Y-80554286D01*
X70442667Y-81183238D02*
X70345905Y-81231619D01*
X70152382Y-81231619D01*
X70055620Y-81183238D01*
X70007239Y-81086476D01*
X70007239Y-80699429D01*
X70055620Y-80602667D01*
X70152382Y-80554286D01*
X70345905Y-80554286D01*
X70442667Y-80602667D01*
X70491048Y-80699429D01*
X70491048Y-80796190D01*
X70007239Y-80892952D01*
X70926477Y-81231619D02*
X70926477Y-80554286D01*
X70926477Y-80747810D02*
X70974858Y-80651048D01*
X71023239Y-80602667D01*
X71120001Y-80554286D01*
X71216762Y-80554286D01*
X56332192Y-40486381D02*
X56235430Y-40438000D01*
X56138668Y-40341238D01*
X55993525Y-40196095D01*
X55896764Y-40147714D01*
X55800002Y-40147714D01*
X55848383Y-40389619D02*
X55751621Y-40341238D01*
X55654859Y-40244476D01*
X55606478Y-40050952D01*
X55606478Y-39712286D01*
X55654859Y-39518762D01*
X55751621Y-39422000D01*
X55848383Y-39373619D01*
X56041906Y-39373619D01*
X56138668Y-39422000D01*
X56235430Y-39518762D01*
X56283811Y-39712286D01*
X56283811Y-40050952D01*
X56235430Y-40244476D01*
X56138668Y-40341238D01*
X56041906Y-40389619D01*
X55848383Y-40389619D01*
X57154668Y-39712286D02*
X57154668Y-40389619D01*
X56719240Y-39712286D02*
X56719240Y-40244476D01*
X56767621Y-40341238D01*
X56864383Y-40389619D01*
X57009525Y-40389619D01*
X57106287Y-40341238D01*
X57154668Y-40292857D01*
X58073906Y-40389619D02*
X58073906Y-39857429D01*
X58025525Y-39760667D01*
X57928763Y-39712286D01*
X57735240Y-39712286D01*
X57638478Y-39760667D01*
X58073906Y-40341238D02*
X57977144Y-40389619D01*
X57735240Y-40389619D01*
X57638478Y-40341238D01*
X57590097Y-40244476D01*
X57590097Y-40147714D01*
X57638478Y-40050952D01*
X57735240Y-40002571D01*
X57977144Y-40002571D01*
X58073906Y-39954190D01*
X58993144Y-40389619D02*
X58993144Y-39373619D01*
X58993144Y-40341238D02*
X58896382Y-40389619D01*
X58702859Y-40389619D01*
X58606097Y-40341238D01*
X58557716Y-40292857D01*
X58509335Y-40196095D01*
X58509335Y-39905810D01*
X58557716Y-39809048D01*
X58606097Y-39760667D01*
X58702859Y-39712286D01*
X58896382Y-39712286D01*
X58993144Y-39760667D01*
X59476954Y-40389619D02*
X59476954Y-39712286D01*
X59476954Y-39905810D02*
X59525335Y-39809048D01*
X59573716Y-39760667D01*
X59670478Y-39712286D01*
X59767239Y-39712286D01*
X60541334Y-40389619D02*
X60541334Y-39857429D01*
X60492953Y-39760667D01*
X60396191Y-39712286D01*
X60202668Y-39712286D01*
X60105906Y-39760667D01*
X60541334Y-40341238D02*
X60444572Y-40389619D01*
X60202668Y-40389619D01*
X60105906Y-40341238D01*
X60057525Y-40244476D01*
X60057525Y-40147714D01*
X60105906Y-40050952D01*
X60202668Y-40002571D01*
X60444572Y-40002571D01*
X60541334Y-39954190D01*
X60880001Y-39712286D02*
X61267049Y-39712286D01*
X61025144Y-39373619D02*
X61025144Y-40244476D01*
X61073525Y-40341238D01*
X61170287Y-40389619D01*
X61267049Y-40389619D01*
X62041143Y-39712286D02*
X62041143Y-40389619D01*
X61605715Y-39712286D02*
X61605715Y-40244476D01*
X61654096Y-40341238D01*
X61750858Y-40389619D01*
X61896000Y-40389619D01*
X61992762Y-40341238D01*
X62041143Y-40292857D01*
X62524953Y-40389619D02*
X62524953Y-39712286D01*
X62524953Y-39905810D02*
X62573334Y-39809048D01*
X62621715Y-39760667D01*
X62718477Y-39712286D01*
X62815238Y-39712286D01*
X63540952Y-40341238D02*
X63444190Y-40389619D01*
X63250667Y-40389619D01*
X63153905Y-40341238D01*
X63105524Y-40244476D01*
X63105524Y-39857429D01*
X63153905Y-39760667D01*
X63250667Y-39712286D01*
X63444190Y-39712286D01*
X63540952Y-39760667D01*
X63589333Y-39857429D01*
X63589333Y-39954190D01*
X63105524Y-40050952D01*
X64798857Y-39857429D02*
X65137523Y-39857429D01*
X65282666Y-40389619D02*
X64798857Y-40389619D01*
X64798857Y-39373619D01*
X65282666Y-39373619D01*
X65718095Y-39712286D02*
X65718095Y-40389619D01*
X65718095Y-39809048D02*
X65766476Y-39760667D01*
X65863238Y-39712286D01*
X66008380Y-39712286D01*
X66105142Y-39760667D01*
X66153523Y-39857429D01*
X66153523Y-40389619D01*
X67072761Y-40341238D02*
X66975999Y-40389619D01*
X66782476Y-40389619D01*
X66685714Y-40341238D01*
X66637333Y-40292857D01*
X66588952Y-40196095D01*
X66588952Y-39905810D01*
X66637333Y-39809048D01*
X66685714Y-39760667D01*
X66782476Y-39712286D01*
X66975999Y-39712286D01*
X67072761Y-39760667D01*
X67653333Y-40389619D02*
X67556571Y-40341238D01*
X67508190Y-40292857D01*
X67459809Y-40196095D01*
X67459809Y-39905810D01*
X67508190Y-39809048D01*
X67556571Y-39760667D01*
X67653333Y-39712286D01*
X67798475Y-39712286D01*
X67895237Y-39760667D01*
X67943618Y-39809048D01*
X67991999Y-39905810D01*
X67991999Y-40196095D01*
X67943618Y-40292857D01*
X67895237Y-40341238D01*
X67798475Y-40389619D01*
X67653333Y-40389619D01*
X68862856Y-40389619D02*
X68862856Y-39373619D01*
X68862856Y-40341238D02*
X68766094Y-40389619D01*
X68572571Y-40389619D01*
X68475809Y-40341238D01*
X68427428Y-40292857D01*
X68379047Y-40196095D01*
X68379047Y-39905810D01*
X68427428Y-39809048D01*
X68475809Y-39760667D01*
X68572571Y-39712286D01*
X68766094Y-39712286D01*
X68862856Y-39760667D01*
X69733713Y-40341238D02*
X69636951Y-40389619D01*
X69443428Y-40389619D01*
X69346666Y-40341238D01*
X69298285Y-40244476D01*
X69298285Y-39857429D01*
X69346666Y-39760667D01*
X69443428Y-39712286D01*
X69636951Y-39712286D01*
X69733713Y-39760667D01*
X69782094Y-39857429D01*
X69782094Y-39954190D01*
X69298285Y-40050952D01*
X70217523Y-40389619D02*
X70217523Y-39712286D01*
X70217523Y-39905810D02*
X70265904Y-39809048D01*
X70314285Y-39760667D01*
X70411047Y-39712286D01*
X70507808Y-39712286D01*
X70798094Y-40341238D02*
X70894856Y-40389619D01*
X71088380Y-40389619D01*
X71185141Y-40341238D01*
X71233522Y-40244476D01*
X71233522Y-40196095D01*
X71185141Y-40099333D01*
X71088380Y-40050952D01*
X70943237Y-40050952D01*
X70846475Y-40002571D01*
X70798094Y-39905810D01*
X70798094Y-39857429D01*
X70846475Y-39760667D01*
X70943237Y-39712286D01*
X71088380Y-39712286D01*
X71185141Y-39760667D01*
D11*
X85995000Y-70112000D02*
X89805000Y-70112000D01*
X89805000Y-67572000D02*
X85995000Y-67572000D01*
X85995000Y-47252000D02*
X89805000Y-47252000D01*
X85995000Y-44712000D02*
X89805000Y-44712000D01*
D12*
X89309095Y-84590000D02*
X89405857Y-84638381D01*
X89551000Y-84638381D01*
X89696142Y-84590000D01*
X89792904Y-84493238D01*
X89841285Y-84396476D01*
X89889666Y-84202952D01*
X89889666Y-84057810D01*
X89841285Y-83864286D01*
X89792904Y-83767524D01*
X89696142Y-83670762D01*
X89551000Y-83622381D01*
X89454238Y-83622381D01*
X89309095Y-83670762D01*
X89260714Y-83719143D01*
X89260714Y-84057810D01*
X89454238Y-84057810D01*
X88825285Y-83622381D02*
X88825285Y-84638381D01*
X88244714Y-83622381D01*
X88244714Y-84638381D01*
X87760904Y-83622381D02*
X87760904Y-84638381D01*
X87518999Y-84638381D01*
X87373857Y-84590000D01*
X87277095Y-84493238D01*
X87228714Y-84396476D01*
X87180333Y-84202952D01*
X87180333Y-84057810D01*
X87228714Y-83864286D01*
X87277095Y-83767524D01*
X87373857Y-83670762D01*
X87518999Y-83622381D01*
X87760904Y-83622381D01*
X84229095Y-84590000D02*
X84325857Y-84638381D01*
X84471000Y-84638381D01*
X84616142Y-84590000D01*
X84712904Y-84493238D01*
X84761285Y-84396476D01*
X84809666Y-84202952D01*
X84809666Y-84057810D01*
X84761285Y-83864286D01*
X84712904Y-83767524D01*
X84616142Y-83670762D01*
X84471000Y-83622381D01*
X84374238Y-83622381D01*
X84229095Y-83670762D01*
X84180714Y-83719143D01*
X84180714Y-84057810D01*
X84374238Y-84057810D01*
X83745285Y-83622381D02*
X83745285Y-84638381D01*
X83164714Y-83622381D01*
X83164714Y-84638381D01*
X82680904Y-83622381D02*
X82680904Y-84638381D01*
X82438999Y-84638381D01*
X82293857Y-84590000D01*
X82197095Y-84493238D01*
X82148714Y-84396476D01*
X82100333Y-84202952D01*
X82100333Y-84057810D01*
X82148714Y-83864286D01*
X82197095Y-83767524D01*
X82293857Y-83670762D01*
X82438999Y-83622381D01*
X82680904Y-83622381D01*
X89550999Y-79558381D02*
X89357476Y-79558381D01*
X89260714Y-79510000D01*
X89163952Y-79413238D01*
X89115571Y-79219714D01*
X89115571Y-78881048D01*
X89163952Y-78687524D01*
X89260714Y-78590762D01*
X89357476Y-78542381D01*
X89550999Y-78542381D01*
X89647761Y-78590762D01*
X89744523Y-78687524D01*
X89792904Y-78881048D01*
X89792904Y-79219714D01*
X89744523Y-79413238D01*
X89647761Y-79510000D01*
X89550999Y-79558381D01*
X88680142Y-79558381D02*
X88680142Y-78735905D01*
X88631761Y-78639143D01*
X88583380Y-78590762D01*
X88486618Y-78542381D01*
X88293095Y-78542381D01*
X88196333Y-78590762D01*
X88147952Y-78639143D01*
X88099571Y-78735905D01*
X88099571Y-79558381D01*
X87760904Y-79558381D02*
X87180333Y-79558381D01*
X87470618Y-78542381D02*
X87470618Y-79558381D01*
X83352190Y-78542381D02*
X83352190Y-79558381D01*
X82868380Y-78542381D02*
X82868380Y-79558381D01*
X82287809Y-78542381D01*
X82287809Y-79558381D01*
X85771238Y-79074571D02*
X85626095Y-79026190D01*
X85577714Y-78977810D01*
X85529333Y-78881048D01*
X85529333Y-78735905D01*
X85577714Y-78639143D01*
X85626095Y-78590762D01*
X85722857Y-78542381D01*
X86109904Y-78542381D01*
X86109904Y-79558381D01*
X85771238Y-79558381D01*
X85674476Y-79510000D01*
X85626095Y-79461619D01*
X85577714Y-79364857D01*
X85577714Y-79268095D01*
X85626095Y-79171333D01*
X85674476Y-79122952D01*
X85771238Y-79074571D01*
X86109904Y-79074571D01*
X84561714Y-78542381D02*
X85142285Y-78542381D01*
X84851999Y-78542381D02*
X84851999Y-79558381D01*
X84948761Y-79413238D01*
X85045523Y-79316476D01*
X85142285Y-79268095D01*
X85771238Y-76534571D02*
X85626095Y-76486190D01*
X85577714Y-76437810D01*
X85529333Y-76341048D01*
X85529333Y-76195905D01*
X85577714Y-76099143D01*
X85626095Y-76050762D01*
X85722857Y-76002381D01*
X86109904Y-76002381D01*
X86109904Y-77018381D01*
X85771238Y-77018381D01*
X85674476Y-76970000D01*
X85626095Y-76921619D01*
X85577714Y-76824857D01*
X85577714Y-76728095D01*
X85626095Y-76631333D01*
X85674476Y-76582952D01*
X85771238Y-76534571D01*
X86109904Y-76534571D01*
X85142285Y-76921619D02*
X85093904Y-76970000D01*
X84997142Y-77018381D01*
X84755238Y-77018381D01*
X84658476Y-76970000D01*
X84610095Y-76921619D01*
X84561714Y-76824857D01*
X84561714Y-76728095D01*
X84610095Y-76582952D01*
X85190666Y-76002381D01*
X84561714Y-76002381D01*
X86085714Y-73752667D02*
X85601905Y-73752667D01*
X86182476Y-73462381D02*
X85843809Y-74478381D01*
X85505143Y-73462381D01*
X85214857Y-74381619D02*
X85166476Y-74430000D01*
X85069714Y-74478381D01*
X84827810Y-74478381D01*
X84731048Y-74430000D01*
X84682667Y-74381619D01*
X84634286Y-74284857D01*
X84634286Y-74188095D01*
X84682667Y-74042952D01*
X85263238Y-73462381D01*
X84634286Y-73462381D01*
X85771238Y-71454571D02*
X85626095Y-71406190D01*
X85577714Y-71357810D01*
X85529333Y-71261048D01*
X85529333Y-71115905D01*
X85577714Y-71019143D01*
X85626095Y-70970762D01*
X85722857Y-70922381D01*
X86109904Y-70922381D01*
X86109904Y-71938381D01*
X85771238Y-71938381D01*
X85674476Y-71890000D01*
X85626095Y-71841619D01*
X85577714Y-71744857D01*
X85577714Y-71648095D01*
X85626095Y-71551333D01*
X85674476Y-71502952D01*
X85771238Y-71454571D01*
X86109904Y-71454571D01*
X84561714Y-70922381D02*
X85142285Y-70922381D01*
X84851999Y-70922381D02*
X84851999Y-71938381D01*
X84948761Y-71793238D01*
X85045523Y-71696476D01*
X85142285Y-71648095D01*
X89550999Y-77018381D02*
X89357476Y-77018381D01*
X89260714Y-76970000D01*
X89163952Y-76873238D01*
X89115571Y-76679714D01*
X89115571Y-76341048D01*
X89163952Y-76147524D01*
X89260714Y-76050762D01*
X89357476Y-76002381D01*
X89550999Y-76002381D01*
X89647761Y-76050762D01*
X89744523Y-76147524D01*
X89792904Y-76341048D01*
X89792904Y-76679714D01*
X89744523Y-76873238D01*
X89647761Y-76970000D01*
X89550999Y-77018381D01*
X88680142Y-77018381D02*
X88680142Y-76195905D01*
X88631761Y-76099143D01*
X88583380Y-76050762D01*
X88486618Y-76002381D01*
X88293095Y-76002381D01*
X88196333Y-76050762D01*
X88147952Y-76099143D01*
X88099571Y-76195905D01*
X88099571Y-77018381D01*
X87760904Y-77018381D02*
X87180333Y-77018381D01*
X87470618Y-76002381D02*
X87470618Y-77018381D01*
X89550999Y-74478381D02*
X89357476Y-74478381D01*
X89260714Y-74430000D01*
X89163952Y-74333238D01*
X89115571Y-74139714D01*
X89115571Y-73801048D01*
X89163952Y-73607524D01*
X89260714Y-73510762D01*
X89357476Y-73462381D01*
X89550999Y-73462381D01*
X89647761Y-73510762D01*
X89744523Y-73607524D01*
X89792904Y-73801048D01*
X89792904Y-74139714D01*
X89744523Y-74333238D01*
X89647761Y-74430000D01*
X89550999Y-74478381D01*
X88680142Y-74478381D02*
X88680142Y-73655905D01*
X88631761Y-73559143D01*
X88583380Y-73510762D01*
X88486618Y-73462381D01*
X88293095Y-73462381D01*
X88196333Y-73510762D01*
X88147952Y-73559143D01*
X88099571Y-73655905D01*
X88099571Y-74478381D01*
X87760904Y-74478381D02*
X87180333Y-74478381D01*
X87470618Y-73462381D02*
X87470618Y-74478381D01*
X89550999Y-71938381D02*
X89357476Y-71938381D01*
X89260714Y-71890000D01*
X89163952Y-71793238D01*
X89115571Y-71599714D01*
X89115571Y-71261048D01*
X89163952Y-71067524D01*
X89260714Y-70970762D01*
X89357476Y-70922381D01*
X89550999Y-70922381D01*
X89647761Y-70970762D01*
X89744523Y-71067524D01*
X89792904Y-71261048D01*
X89792904Y-71599714D01*
X89744523Y-71793238D01*
X89647761Y-71890000D01*
X89550999Y-71938381D01*
X88680142Y-71938381D02*
X88680142Y-71115905D01*
X88631761Y-71019143D01*
X88583380Y-70970762D01*
X88486618Y-70922381D01*
X88293095Y-70922381D01*
X88196333Y-70970762D01*
X88147952Y-71019143D01*
X88099571Y-71115905D01*
X88099571Y-71938381D01*
X87760904Y-71938381D02*
X87180333Y-71938381D01*
X87470618Y-70922381D02*
X87470618Y-71938381D01*
X83352190Y-76002381D02*
X83352190Y-77018381D01*
X82868380Y-76002381D02*
X82868380Y-77018381D01*
X82287809Y-76002381D01*
X82287809Y-77018381D01*
X83352190Y-73462381D02*
X83352190Y-74478381D01*
X82868380Y-73462381D02*
X82868380Y-74478381D01*
X82287809Y-73462381D01*
X82287809Y-74478381D01*
X83352190Y-70922381D02*
X83352190Y-71938381D01*
X82868380Y-70922381D02*
X82868380Y-71938381D01*
X82287809Y-70922381D01*
X82287809Y-71938381D01*
X89859428Y-68672667D02*
X89375619Y-68672667D01*
X89956190Y-68382381D02*
X89617523Y-69398381D01*
X89278857Y-68382381D01*
X88940190Y-68382381D02*
X88940190Y-69398381D01*
X88504761Y-68430762D02*
X88359618Y-68382381D01*
X88117714Y-68382381D01*
X88020952Y-68430762D01*
X87972571Y-68479143D01*
X87924190Y-68575905D01*
X87924190Y-68672667D01*
X87972571Y-68769429D01*
X88020952Y-68817810D01*
X88117714Y-68866190D01*
X88311237Y-68914571D01*
X88407999Y-68962952D01*
X88456380Y-69011333D01*
X88504761Y-69108095D01*
X88504761Y-69204857D01*
X88456380Y-69301619D01*
X88407999Y-69350000D01*
X88311237Y-69398381D01*
X88069333Y-69398381D01*
X87924190Y-69350000D01*
X87488761Y-68914571D02*
X87150095Y-68914571D01*
X87004952Y-68382381D02*
X87488761Y-68382381D01*
X87488761Y-69398381D01*
X87004952Y-69398381D01*
X86569523Y-68382381D02*
X86569523Y-69398381D01*
X85988952Y-68382381D01*
X85988952Y-69398381D01*
X89647762Y-82098381D02*
X89309095Y-81082381D01*
X88970429Y-82098381D01*
X88631762Y-81082381D02*
X88631762Y-82098381D01*
X88147952Y-81082381D02*
X88147952Y-82098381D01*
X87567381Y-81082381D01*
X87567381Y-82098381D01*
X84954809Y-82098381D02*
X84616142Y-81082381D01*
X84277476Y-82098381D01*
X83938809Y-81082381D02*
X83938809Y-82098381D01*
X83600143Y-81372667D01*
X83261476Y-82098381D01*
X83261476Y-81082381D01*
X82777666Y-81082381D02*
X82777666Y-82098381D01*
X82439000Y-81372667D01*
X82100333Y-82098381D01*
X82100333Y-81082381D01*
X89544953Y-66374571D02*
X89399810Y-66326190D01*
X89351429Y-66277810D01*
X89303048Y-66181048D01*
X89303048Y-66035905D01*
X89351429Y-65939143D01*
X89399810Y-65890762D01*
X89496572Y-65842381D01*
X89883619Y-65842381D01*
X89883619Y-66858381D01*
X89544953Y-66858381D01*
X89448191Y-66810000D01*
X89399810Y-66761619D01*
X89351429Y-66664857D01*
X89351429Y-66568095D01*
X89399810Y-66471333D01*
X89448191Y-66422952D01*
X89544953Y-66374571D01*
X89883619Y-66374571D01*
X88867619Y-65842381D02*
X88867619Y-66858381D01*
X88432190Y-65890762D02*
X88287047Y-65842381D01*
X88045143Y-65842381D01*
X87948381Y-65890762D01*
X87900000Y-65939143D01*
X87851619Y-66035905D01*
X87851619Y-66132667D01*
X87900000Y-66229429D01*
X87948381Y-66277810D01*
X88045143Y-66326190D01*
X88238666Y-66374571D01*
X88335428Y-66422952D01*
X88383809Y-66471333D01*
X88432190Y-66568095D01*
X88432190Y-66664857D01*
X88383809Y-66761619D01*
X88335428Y-66810000D01*
X88238666Y-66858381D01*
X87996762Y-66858381D01*
X87851619Y-66810000D01*
X87416190Y-66374571D02*
X87077524Y-66374571D01*
X86932381Y-65842381D02*
X87416190Y-65842381D01*
X87416190Y-66858381D01*
X86932381Y-66858381D01*
X86496952Y-65842381D02*
X86496952Y-66858381D01*
X85916381Y-65842381D01*
X85916381Y-66858381D01*
X84664523Y-68430762D02*
X84519380Y-68382381D01*
X84277476Y-68382381D01*
X84180714Y-68430762D01*
X84132333Y-68479143D01*
X84083952Y-68575905D01*
X84083952Y-68672667D01*
X84132333Y-68769429D01*
X84180714Y-68817810D01*
X84277476Y-68866190D01*
X84470999Y-68914571D01*
X84567761Y-68962952D01*
X84616142Y-69011333D01*
X84664523Y-69108095D01*
X84664523Y-69204857D01*
X84616142Y-69301619D01*
X84567761Y-69350000D01*
X84470999Y-69398381D01*
X84229095Y-69398381D01*
X84083952Y-69350000D01*
X83164714Y-68382381D02*
X83648523Y-68382381D01*
X83648523Y-69398381D01*
X82826047Y-68382381D02*
X82826047Y-69398381D01*
X82439000Y-69398381D01*
X82342238Y-69350000D01*
X82293857Y-69301619D01*
X82245476Y-69204857D01*
X82245476Y-69059714D01*
X82293857Y-68962952D01*
X82342238Y-68914571D01*
X82439000Y-68866190D01*
X82826047Y-68866190D01*
X84108143Y-66374571D02*
X84446809Y-66374571D01*
X84446809Y-65842381D02*
X84446809Y-66858381D01*
X83963000Y-66858381D01*
X83092143Y-65842381D02*
X83575952Y-65842381D01*
X83575952Y-66858381D01*
X82898619Y-66858381D02*
X82318048Y-66858381D01*
X82608333Y-65842381D02*
X82608333Y-66858381D01*
X84108143Y-43514571D02*
X84446809Y-43514571D01*
X84446809Y-42982381D02*
X84446809Y-43998381D01*
X83963000Y-43998381D01*
X83092143Y-42982381D02*
X83575952Y-42982381D01*
X83575952Y-43998381D01*
X82898619Y-43998381D02*
X82318048Y-43998381D01*
X82608333Y-42982381D02*
X82608333Y-43998381D01*
X84664523Y-45570762D02*
X84519380Y-45522381D01*
X84277476Y-45522381D01*
X84180714Y-45570762D01*
X84132333Y-45619143D01*
X84083952Y-45715905D01*
X84083952Y-45812667D01*
X84132333Y-45909429D01*
X84180714Y-45957810D01*
X84277476Y-46006190D01*
X84470999Y-46054571D01*
X84567761Y-46102952D01*
X84616142Y-46151333D01*
X84664523Y-46248095D01*
X84664523Y-46344857D01*
X84616142Y-46441619D01*
X84567761Y-46490000D01*
X84470999Y-46538381D01*
X84229095Y-46538381D01*
X84083952Y-46490000D01*
X83164714Y-45522381D02*
X83648523Y-45522381D01*
X83648523Y-46538381D01*
X82826047Y-45522381D02*
X82826047Y-46538381D01*
X82439000Y-46538381D01*
X82342238Y-46490000D01*
X82293857Y-46441619D01*
X82245476Y-46344857D01*
X82245476Y-46199714D01*
X82293857Y-46102952D01*
X82342238Y-46054571D01*
X82439000Y-46006190D01*
X82826047Y-46006190D01*
X89544953Y-43514571D02*
X89399810Y-43466190D01*
X89351429Y-43417810D01*
X89303048Y-43321048D01*
X89303048Y-43175905D01*
X89351429Y-43079143D01*
X89399810Y-43030762D01*
X89496572Y-42982381D01*
X89883619Y-42982381D01*
X89883619Y-43998381D01*
X89544953Y-43998381D01*
X89448191Y-43950000D01*
X89399810Y-43901619D01*
X89351429Y-43804857D01*
X89351429Y-43708095D01*
X89399810Y-43611333D01*
X89448191Y-43562952D01*
X89544953Y-43514571D01*
X89883619Y-43514571D01*
X88867619Y-42982381D02*
X88867619Y-43998381D01*
X88432190Y-43030762D02*
X88287047Y-42982381D01*
X88045143Y-42982381D01*
X87948381Y-43030762D01*
X87900000Y-43079143D01*
X87851619Y-43175905D01*
X87851619Y-43272667D01*
X87900000Y-43369429D01*
X87948381Y-43417810D01*
X88045143Y-43466190D01*
X88238666Y-43514571D01*
X88335428Y-43562952D01*
X88383809Y-43611333D01*
X88432190Y-43708095D01*
X88432190Y-43804857D01*
X88383809Y-43901619D01*
X88335428Y-43950000D01*
X88238666Y-43998381D01*
X87996762Y-43998381D01*
X87851619Y-43950000D01*
X87416190Y-43514571D02*
X87077524Y-43514571D01*
X86932381Y-42982381D02*
X87416190Y-42982381D01*
X87416190Y-43998381D01*
X86932381Y-43998381D01*
X86496952Y-42982381D02*
X86496952Y-43998381D01*
X85916381Y-42982381D01*
X85916381Y-43998381D01*
X84954809Y-59238381D02*
X84616142Y-58222381D01*
X84277476Y-59238381D01*
X83938809Y-58222381D02*
X83938809Y-59238381D01*
X83600143Y-58512667D01*
X83261476Y-59238381D01*
X83261476Y-58222381D01*
X82777666Y-58222381D02*
X82777666Y-59238381D01*
X82439000Y-58512667D01*
X82100333Y-59238381D01*
X82100333Y-58222381D01*
X89647762Y-59238381D02*
X89309095Y-58222381D01*
X88970429Y-59238381D01*
X88631762Y-58222381D02*
X88631762Y-59238381D01*
X88147952Y-58222381D02*
X88147952Y-59238381D01*
X87567381Y-58222381D01*
X87567381Y-59238381D01*
X89859428Y-45812667D02*
X89375619Y-45812667D01*
X89956190Y-45522381D02*
X89617523Y-46538381D01*
X89278857Y-45522381D01*
X88940190Y-45522381D02*
X88940190Y-46538381D01*
X88504761Y-45570762D02*
X88359618Y-45522381D01*
X88117714Y-45522381D01*
X88020952Y-45570762D01*
X87972571Y-45619143D01*
X87924190Y-45715905D01*
X87924190Y-45812667D01*
X87972571Y-45909429D01*
X88020952Y-45957810D01*
X88117714Y-46006190D01*
X88311237Y-46054571D01*
X88407999Y-46102952D01*
X88456380Y-46151333D01*
X88504761Y-46248095D01*
X88504761Y-46344857D01*
X88456380Y-46441619D01*
X88407999Y-46490000D01*
X88311237Y-46538381D01*
X88069333Y-46538381D01*
X87924190Y-46490000D01*
X87488761Y-46054571D02*
X87150095Y-46054571D01*
X87004952Y-45522381D02*
X87488761Y-45522381D01*
X87488761Y-46538381D01*
X87004952Y-46538381D01*
X86569523Y-45522381D02*
X86569523Y-46538381D01*
X85988952Y-45522381D01*
X85988952Y-46538381D01*
X83352190Y-48062381D02*
X83352190Y-49078381D01*
X82868380Y-48062381D02*
X82868380Y-49078381D01*
X82287809Y-48062381D01*
X82287809Y-49078381D01*
X83352190Y-50602381D02*
X83352190Y-51618381D01*
X82868380Y-50602381D02*
X82868380Y-51618381D01*
X82287809Y-50602381D01*
X82287809Y-51618381D01*
X83352190Y-53142381D02*
X83352190Y-54158381D01*
X82868380Y-53142381D02*
X82868380Y-54158381D01*
X82287809Y-53142381D01*
X82287809Y-54158381D01*
X89550999Y-49078381D02*
X89357476Y-49078381D01*
X89260714Y-49030000D01*
X89163952Y-48933238D01*
X89115571Y-48739714D01*
X89115571Y-48401048D01*
X89163952Y-48207524D01*
X89260714Y-48110762D01*
X89357476Y-48062381D01*
X89550999Y-48062381D01*
X89647761Y-48110762D01*
X89744523Y-48207524D01*
X89792904Y-48401048D01*
X89792904Y-48739714D01*
X89744523Y-48933238D01*
X89647761Y-49030000D01*
X89550999Y-49078381D01*
X88680142Y-49078381D02*
X88680142Y-48255905D01*
X88631761Y-48159143D01*
X88583380Y-48110762D01*
X88486618Y-48062381D01*
X88293095Y-48062381D01*
X88196333Y-48110762D01*
X88147952Y-48159143D01*
X88099571Y-48255905D01*
X88099571Y-49078381D01*
X87760904Y-49078381D02*
X87180333Y-49078381D01*
X87470618Y-48062381D02*
X87470618Y-49078381D01*
X89550999Y-51618381D02*
X89357476Y-51618381D01*
X89260714Y-51570000D01*
X89163952Y-51473238D01*
X89115571Y-51279714D01*
X89115571Y-50941048D01*
X89163952Y-50747524D01*
X89260714Y-50650762D01*
X89357476Y-50602381D01*
X89550999Y-50602381D01*
X89647761Y-50650762D01*
X89744523Y-50747524D01*
X89792904Y-50941048D01*
X89792904Y-51279714D01*
X89744523Y-51473238D01*
X89647761Y-51570000D01*
X89550999Y-51618381D01*
X88680142Y-51618381D02*
X88680142Y-50795905D01*
X88631761Y-50699143D01*
X88583380Y-50650762D01*
X88486618Y-50602381D01*
X88293095Y-50602381D01*
X88196333Y-50650762D01*
X88147952Y-50699143D01*
X88099571Y-50795905D01*
X88099571Y-51618381D01*
X87760904Y-51618381D02*
X87180333Y-51618381D01*
X87470618Y-50602381D02*
X87470618Y-51618381D01*
X89550999Y-54158381D02*
X89357476Y-54158381D01*
X89260714Y-54110000D01*
X89163952Y-54013238D01*
X89115571Y-53819714D01*
X89115571Y-53481048D01*
X89163952Y-53287524D01*
X89260714Y-53190762D01*
X89357476Y-53142381D01*
X89550999Y-53142381D01*
X89647761Y-53190762D01*
X89744523Y-53287524D01*
X89792904Y-53481048D01*
X89792904Y-53819714D01*
X89744523Y-54013238D01*
X89647761Y-54110000D01*
X89550999Y-54158381D01*
X88680142Y-54158381D02*
X88680142Y-53335905D01*
X88631761Y-53239143D01*
X88583380Y-53190762D01*
X88486618Y-53142381D01*
X88293095Y-53142381D01*
X88196333Y-53190762D01*
X88147952Y-53239143D01*
X88099571Y-53335905D01*
X88099571Y-54158381D01*
X87760904Y-54158381D02*
X87180333Y-54158381D01*
X87470618Y-53142381D02*
X87470618Y-54158381D01*
X85771238Y-48594571D02*
X85626095Y-48546190D01*
X85577714Y-48497810D01*
X85529333Y-48401048D01*
X85529333Y-48255905D01*
X85577714Y-48159143D01*
X85626095Y-48110762D01*
X85722857Y-48062381D01*
X86109904Y-48062381D01*
X86109904Y-49078381D01*
X85771238Y-49078381D01*
X85674476Y-49030000D01*
X85626095Y-48981619D01*
X85577714Y-48884857D01*
X85577714Y-48788095D01*
X85626095Y-48691333D01*
X85674476Y-48642952D01*
X85771238Y-48594571D01*
X86109904Y-48594571D01*
X84561714Y-48062381D02*
X85142285Y-48062381D01*
X84851999Y-48062381D02*
X84851999Y-49078381D01*
X84948761Y-48933238D01*
X85045523Y-48836476D01*
X85142285Y-48788095D01*
X86085714Y-50892667D02*
X85601905Y-50892667D01*
X86182476Y-50602381D02*
X85843809Y-51618381D01*
X85505143Y-50602381D01*
X85214857Y-51521619D02*
X85166476Y-51570000D01*
X85069714Y-51618381D01*
X84827810Y-51618381D01*
X84731048Y-51570000D01*
X84682667Y-51521619D01*
X84634286Y-51424857D01*
X84634286Y-51328095D01*
X84682667Y-51182952D01*
X85263238Y-50602381D01*
X84634286Y-50602381D01*
X85771238Y-53674571D02*
X85626095Y-53626190D01*
X85577714Y-53577810D01*
X85529333Y-53481048D01*
X85529333Y-53335905D01*
X85577714Y-53239143D01*
X85626095Y-53190762D01*
X85722857Y-53142381D01*
X86109904Y-53142381D01*
X86109904Y-54158381D01*
X85771238Y-54158381D01*
X85674476Y-54110000D01*
X85626095Y-54061619D01*
X85577714Y-53964857D01*
X85577714Y-53868095D01*
X85626095Y-53771333D01*
X85674476Y-53722952D01*
X85771238Y-53674571D01*
X86109904Y-53674571D01*
X85142285Y-54061619D02*
X85093904Y-54110000D01*
X84997142Y-54158381D01*
X84755238Y-54158381D01*
X84658476Y-54110000D01*
X84610095Y-54061619D01*
X84561714Y-53964857D01*
X84561714Y-53868095D01*
X84610095Y-53722952D01*
X85190666Y-53142381D01*
X84561714Y-53142381D01*
X85771238Y-56214571D02*
X85626095Y-56166190D01*
X85577714Y-56117810D01*
X85529333Y-56021048D01*
X85529333Y-55875905D01*
X85577714Y-55779143D01*
X85626095Y-55730762D01*
X85722857Y-55682381D01*
X86109904Y-55682381D01*
X86109904Y-56698381D01*
X85771238Y-56698381D01*
X85674476Y-56650000D01*
X85626095Y-56601619D01*
X85577714Y-56504857D01*
X85577714Y-56408095D01*
X85626095Y-56311333D01*
X85674476Y-56262952D01*
X85771238Y-56214571D01*
X86109904Y-56214571D01*
X84561714Y-55682381D02*
X85142285Y-55682381D01*
X84851999Y-55682381D02*
X84851999Y-56698381D01*
X84948761Y-56553238D01*
X85045523Y-56456476D01*
X85142285Y-56408095D01*
X83352190Y-55682381D02*
X83352190Y-56698381D01*
X82868380Y-55682381D02*
X82868380Y-56698381D01*
X82287809Y-55682381D01*
X82287809Y-56698381D01*
X89550999Y-56698381D02*
X89357476Y-56698381D01*
X89260714Y-56650000D01*
X89163952Y-56553238D01*
X89115571Y-56359714D01*
X89115571Y-56021048D01*
X89163952Y-55827524D01*
X89260714Y-55730762D01*
X89357476Y-55682381D01*
X89550999Y-55682381D01*
X89647761Y-55730762D01*
X89744523Y-55827524D01*
X89792904Y-56021048D01*
X89792904Y-56359714D01*
X89744523Y-56553238D01*
X89647761Y-56650000D01*
X89550999Y-56698381D01*
X88680142Y-56698381D02*
X88680142Y-55875905D01*
X88631761Y-55779143D01*
X88583380Y-55730762D01*
X88486618Y-55682381D01*
X88293095Y-55682381D01*
X88196333Y-55730762D01*
X88147952Y-55779143D01*
X88099571Y-55875905D01*
X88099571Y-56698381D01*
X87760904Y-56698381D02*
X87180333Y-56698381D01*
X87470618Y-55682381D02*
X87470618Y-56698381D01*
X84229095Y-61730000D02*
X84325857Y-61778381D01*
X84471000Y-61778381D01*
X84616142Y-61730000D01*
X84712904Y-61633238D01*
X84761285Y-61536476D01*
X84809666Y-61342952D01*
X84809666Y-61197810D01*
X84761285Y-61004286D01*
X84712904Y-60907524D01*
X84616142Y-60810762D01*
X84471000Y-60762381D01*
X84374238Y-60762381D01*
X84229095Y-60810762D01*
X84180714Y-60859143D01*
X84180714Y-61197810D01*
X84374238Y-61197810D01*
X83745285Y-60762381D02*
X83745285Y-61778381D01*
X83164714Y-60762381D01*
X83164714Y-61778381D01*
X82680904Y-60762381D02*
X82680904Y-61778381D01*
X82438999Y-61778381D01*
X82293857Y-61730000D01*
X82197095Y-61633238D01*
X82148714Y-61536476D01*
X82100333Y-61342952D01*
X82100333Y-61197810D01*
X82148714Y-61004286D01*
X82197095Y-60907524D01*
X82293857Y-60810762D01*
X82438999Y-60762381D01*
X82680904Y-60762381D01*
X89309095Y-61730000D02*
X89405857Y-61778381D01*
X89551000Y-61778381D01*
X89696142Y-61730000D01*
X89792904Y-61633238D01*
X89841285Y-61536476D01*
X89889666Y-61342952D01*
X89889666Y-61197810D01*
X89841285Y-61004286D01*
X89792904Y-60907524D01*
X89696142Y-60810762D01*
X89551000Y-60762381D01*
X89454238Y-60762381D01*
X89309095Y-60810762D01*
X89260714Y-60859143D01*
X89260714Y-61197810D01*
X89454238Y-61197810D01*
X88825285Y-60762381D02*
X88825285Y-61778381D01*
X88244714Y-60762381D01*
X88244714Y-61778381D01*
X87760904Y-60762381D02*
X87760904Y-61778381D01*
X87518999Y-61778381D01*
X87373857Y-61730000D01*
X87277095Y-61633238D01*
X87228714Y-61536476D01*
X87180333Y-61342952D01*
X87180333Y-61197810D01*
X87228714Y-61004286D01*
X87277095Y-60907524D01*
X87373857Y-60810762D01*
X87518999Y-60762381D01*
X87760904Y-60762381D01*
X59690000Y-83693000D02*
X59690000Y-82804000D01*
X58674000Y-83566000D02*
X58674000Y-85598000D01*
X58674000Y-85598000D02*
X58801000Y-85598000D01*
X58801000Y-85598000D02*
X58801000Y-83566000D01*
X58928000Y-86106000D02*
X58928000Y-83058000D01*
X63500000Y-84582000D02*
G75*
G03X63500000Y-84582000I-2540000J0D01*
G74*
G01*
D13*
X52340000Y-84082000D02*
X52340000Y-63762000D01*
X52340000Y-63762000D02*
X54880000Y-63762000D01*
X54880000Y-63762000D02*
X54880000Y-84082000D01*
X54880000Y-84082000D02*
X52340000Y-84082000D01*
X54880000Y-81542000D02*
X52340000Y-81542000D01*
D14*
X92345000Y-62492000D02*
X92345000Y-42172000D01*
X92345000Y-42172000D02*
X79645000Y-42172000D01*
X79645000Y-42172000D02*
X79645000Y-62492000D01*
X79645000Y-62492000D02*
X92345000Y-62492000D01*
D12*
X96759000Y-61768000D02*
X97648000Y-61768000D01*
X96886000Y-60752000D02*
X94854000Y-60752000D01*
X94854000Y-60752000D02*
X94854000Y-60879000D01*
X94854000Y-60879000D02*
X96886000Y-60879000D01*
X94346000Y-61006000D02*
X97394000Y-61006000D01*
X98410000Y-63038000D02*
G75*
G03X98410000Y-63038000I-2540000J0D01*
G74*
G01*
D13*
X54880000Y-84082000D02*
X54880000Y-84082000D01*
X57420000Y-84082000D02*
X54880000Y-84082000D01*
X54880000Y-84082000D02*
X54880000Y-84082000D01*
X54880000Y-84082000D02*
X54880000Y-73922000D01*
X54880000Y-73922000D02*
X57420000Y-73922000D01*
X57420000Y-73922000D02*
X57420000Y-84082000D01*
X57420000Y-81542000D02*
X54880000Y-81542000D01*
X52340000Y-63762000D02*
X52340000Y-43442000D01*
X52340000Y-43442000D02*
X54880000Y-43442000D01*
X54880000Y-43442000D02*
X54880000Y-63762000D01*
X54880000Y-63762000D02*
X52340000Y-63762000D01*
X54880000Y-61222000D02*
X52340000Y-61222000D01*
X68580000Y-83312000D02*
X68580000Y-83312000D01*
X68580000Y-85852000D02*
X68580000Y-83312000D01*
X68580000Y-83312000D02*
X68580000Y-83312000D01*
X68580000Y-83312000D02*
X78740000Y-83312000D01*
X78740000Y-83312000D02*
X78740000Y-85852000D01*
X78740000Y-85852000D02*
X68580000Y-85852000D01*
X71120000Y-85852000D02*
X71120000Y-83312000D01*
X84725000Y-41537000D02*
X84725000Y-41537000D01*
X84725000Y-38997000D02*
X84725000Y-41537000D01*
X84725000Y-41537000D02*
X84725000Y-41537000D01*
X84725000Y-41537000D02*
X74565000Y-41537000D01*
X74565000Y-41537000D02*
X74565000Y-38997000D01*
X74565000Y-38997000D02*
X84725000Y-38997000D01*
X82185000Y-38997000D02*
X82185000Y-41537000D01*
X54880000Y-63762000D02*
X54880000Y-63762000D01*
X57420000Y-63762000D02*
X54880000Y-63762000D01*
X54880000Y-63762000D02*
X54880000Y-63762000D01*
X54880000Y-63762000D02*
X54880000Y-53602000D01*
X54880000Y-53602000D02*
X57420000Y-53602000D01*
X57420000Y-53602000D02*
X57420000Y-63762000D01*
X57420000Y-61222000D02*
X54880000Y-61222000D01*
X73930000Y-63762000D02*
X73930000Y-43442000D01*
X73930000Y-43442000D02*
X76470000Y-43442000D01*
X76470000Y-43442000D02*
X76470000Y-63762000D01*
X76470000Y-63762000D02*
X73930000Y-63762000D01*
X76470000Y-61222000D02*
X73930000Y-61222000D01*
D15*
X67501260Y-75192000D02*
X68517260Y-75192000D01*
X62421260Y-75192000D02*
X61405260Y-75192000D01*
X67501260Y-76462000D02*
X62421260Y-76462000D01*
X62421260Y-76462000D02*
X62421260Y-73922000D01*
X62421260Y-73922000D02*
X67501260Y-73922000D01*
X67501260Y-73922000D02*
X67501260Y-76462000D01*
X67501260Y-67572000D02*
X68517260Y-67572000D01*
X62421260Y-67572000D02*
X61405260Y-67572000D01*
X67501260Y-68842000D02*
X62421260Y-68842000D01*
X62421260Y-68842000D02*
X62421260Y-66302000D01*
X62421260Y-66302000D02*
X67501260Y-66302000D01*
X67501260Y-66302000D02*
X67501260Y-68842000D01*
X67501260Y-65032000D02*
X68517260Y-65032000D01*
X62421260Y-65032000D02*
X61405260Y-65032000D01*
X67501260Y-66302000D02*
X62421260Y-66302000D01*
X62421260Y-66302000D02*
X62421260Y-63762000D01*
X62421260Y-63762000D02*
X67501260Y-63762000D01*
X67501260Y-63762000D02*
X67501260Y-66302000D01*
X62421260Y-62492000D02*
X61405260Y-62492000D01*
X67501260Y-62492000D02*
X68517260Y-62492000D01*
X62421260Y-61222000D02*
X67501260Y-61222000D01*
X67501260Y-61222000D02*
X67501260Y-63762000D01*
X67501260Y-63762000D02*
X62421260Y-63762000D01*
X62421260Y-63762000D02*
X62421260Y-61222000D01*
X62421260Y-59952000D02*
X61405260Y-59952000D01*
X67501260Y-59952000D02*
X68517260Y-59952000D01*
X62421260Y-58682000D02*
X67501260Y-58682000D01*
X67501260Y-58682000D02*
X67501260Y-61222000D01*
X67501260Y-61222000D02*
X62421260Y-61222000D01*
X62421260Y-61222000D02*
X62421260Y-58682000D01*
X62421260Y-57412000D02*
X61405260Y-57412000D01*
X67501260Y-57412000D02*
X68517260Y-57412000D01*
X62421260Y-56142000D02*
X67501260Y-56142000D01*
X67501260Y-56142000D02*
X67501260Y-58682000D01*
X67501260Y-58682000D02*
X62421260Y-58682000D01*
X62421260Y-58682000D02*
X62421260Y-56142000D01*
X62421260Y-54872000D02*
X61405260Y-54872000D01*
X67501260Y-54872000D02*
X68517260Y-54872000D01*
X62421260Y-53602000D02*
X67501260Y-53602000D01*
X67501260Y-53602000D02*
X67501260Y-56142000D01*
X67501260Y-56142000D02*
X62421260Y-56142000D01*
X62421260Y-56142000D02*
X62421260Y-53602000D01*
X62421260Y-52332000D02*
X61405260Y-52332000D01*
X67501260Y-52332000D02*
X68517260Y-52332000D01*
X62421260Y-51062000D02*
X67501260Y-51062000D01*
X67501260Y-51062000D02*
X67501260Y-53602000D01*
X67501260Y-53602000D02*
X62421260Y-53602000D01*
X62421260Y-53602000D02*
X62421260Y-51062000D01*
X62421260Y-49792000D02*
X61405260Y-49792000D01*
X67501260Y-49792000D02*
X68517260Y-49792000D01*
X62421260Y-48522000D02*
X67501260Y-48522000D01*
X67501260Y-48522000D02*
X67501260Y-51062000D01*
X67501260Y-51062000D02*
X62421260Y-51062000D01*
X62421260Y-51062000D02*
X62421260Y-48522000D01*
X62421260Y-47252000D02*
X61405260Y-47252000D01*
X67501260Y-47252000D02*
X68517260Y-47252000D01*
X62421260Y-45982000D02*
X67501260Y-45982000D01*
X67501260Y-45982000D02*
X67501260Y-48522000D01*
X67501260Y-48522000D02*
X62421260Y-48522000D01*
X62421260Y-48522000D02*
X62421260Y-45982000D01*
X62421260Y-44712000D02*
X61405260Y-44712000D01*
X67501260Y-44712000D02*
X68517260Y-44712000D01*
X62421260Y-43442000D02*
X67501260Y-43442000D01*
X67501260Y-43442000D02*
X67501260Y-45982000D01*
X67501260Y-45982000D02*
X62421260Y-45982000D01*
X62421260Y-45982000D02*
X62421260Y-43442000D01*
D14*
X98816400Y-66619400D02*
X99324400Y-66619400D01*
X98816400Y-66619400D02*
X98816400Y-66111400D01*
X98816400Y-66111400D02*
X98816400Y-66619400D01*
X106792000Y-66619400D02*
X102347000Y-66619400D01*
X112507000Y-66619400D02*
X109967000Y-66619400D01*
X112507000Y-65832000D02*
X112507000Y-66619400D01*
X112507000Y-58999400D02*
X112507000Y-66086000D01*
X98816400Y-58999400D02*
X98816400Y-66086000D01*
X108316000Y-58999400D02*
X98816400Y-58999400D01*
X108316000Y-58999400D02*
X112507000Y-58999400D01*
X65140000Y-83682000D02*
X66940000Y-83682000D01*
X66940000Y-83682000D02*
X66940000Y-85482000D01*
X66940000Y-85482000D02*
X65140000Y-85482000D01*
X65140000Y-85482000D02*
X65140000Y-83682000D01*
D15*
X67501260Y-77732000D02*
X68517260Y-77732000D01*
X62421260Y-77732000D02*
X61405260Y-77732000D01*
X67501260Y-79002000D02*
X62421260Y-79002000D01*
X62421260Y-79002000D02*
X62421260Y-76462000D01*
X62421260Y-76462000D02*
X67501260Y-76462000D01*
X67501260Y-76462000D02*
X67501260Y-79002000D01*
D14*
X92345000Y-85352000D02*
X92345000Y-65032000D01*
X92345000Y-65032000D02*
X79645000Y-65032000D01*
X79645000Y-65032000D02*
X79645000Y-85352000D01*
X79645000Y-85352000D02*
X92345000Y-85352000D01*
X94123000Y-39505000D02*
X106619800Y-39505000D01*
X94123000Y-49665000D02*
X94123000Y-38997000D01*
X106619800Y-38997000D02*
X106619800Y-49157000D01*
X94123000Y-39505000D02*
X94123000Y-38997000D01*
X94123000Y-38997000D02*
X95139000Y-38997000D01*
X106619800Y-49690400D02*
X106619800Y-49182400D01*
X106619800Y-38997000D02*
X103267000Y-38997000D01*
X103775000Y-40013000D02*
X104283000Y-40521000D01*
X103775000Y-41537000D02*
X103775000Y-40013000D01*
X103775000Y-40013000D02*
X103267000Y-40521000D01*
X94123000Y-38997000D02*
X103267000Y-38997000D01*
X94155000Y-49677000D02*
X96155000Y-49677000D01*
X96155000Y-49677000D02*
X98155000Y-49677000D01*
X106619800Y-49690400D02*
X95235000Y-49677000D01*
X106172000Y-85852000D02*
X93675200Y-85852000D01*
X106172000Y-75692000D02*
X106172000Y-86360000D01*
X93675200Y-86360000D02*
X93675200Y-76200000D01*
X106172000Y-85852000D02*
X106172000Y-86360000D01*
X106172000Y-86360000D02*
X105156000Y-86360000D01*
X93675200Y-75666600D02*
X93675200Y-76174600D01*
X93675200Y-86360000D02*
X97028000Y-86360000D01*
X96520000Y-85344000D02*
X96012000Y-84836000D01*
X96520000Y-83820000D02*
X96520000Y-85344000D01*
X96520000Y-85344000D02*
X97028000Y-84836000D01*
X106172000Y-86360000D02*
X97028000Y-86360000D01*
X106140000Y-75680000D02*
X104140000Y-75680000D01*
X104140000Y-75680000D02*
X102140000Y-75680000D01*
X93675200Y-75666600D02*
X105060000Y-75680000D01*
D12*
X57878857Y-86067333D02*
X57927238Y-86115714D01*
X57975619Y-86260857D01*
X57975619Y-86357619D01*
X57927238Y-86502761D01*
X57830476Y-86599523D01*
X57733714Y-86647904D01*
X57540190Y-86696285D01*
X57395048Y-86696285D01*
X57201524Y-86647904D01*
X57104762Y-86599523D01*
X57008000Y-86502761D01*
X56959619Y-86357619D01*
X56959619Y-86260857D01*
X57008000Y-86115714D01*
X57056381Y-86067333D01*
X57056381Y-85680285D02*
X57008000Y-85631904D01*
X56959619Y-85535142D01*
X56959619Y-85293238D01*
X57008000Y-85196476D01*
X57056381Y-85148095D01*
X57153143Y-85099714D01*
X57249905Y-85099714D01*
X57395048Y-85148095D01*
X57975619Y-85728666D01*
X57975619Y-85099714D01*
X95700667Y-67210857D02*
X95652286Y-67259238D01*
X95507143Y-67307619D01*
X95410381Y-67307619D01*
X95265239Y-67259238D01*
X95168477Y-67162476D01*
X95120096Y-67065714D01*
X95071715Y-66872190D01*
X95071715Y-66727048D01*
X95120096Y-66533524D01*
X95168477Y-66436762D01*
X95265239Y-66340000D01*
X95410381Y-66291619D01*
X95507143Y-66291619D01*
X95652286Y-66340000D01*
X95700667Y-66388381D01*
X96668286Y-67307619D02*
X96087715Y-67307619D01*
X96378001Y-67307619D02*
X96378001Y-66291619D01*
X96281239Y-66436762D01*
X96184477Y-66533524D01*
X96087715Y-66581905D01*
X72490667Y-76286619D02*
X72152001Y-75802810D01*
X71910096Y-76286619D02*
X71910096Y-75270619D01*
X72297143Y-75270619D01*
X72393905Y-75319000D01*
X72442286Y-75367381D01*
X72490667Y-75464143D01*
X72490667Y-75609286D01*
X72442286Y-75706048D01*
X72393905Y-75754429D01*
X72297143Y-75802810D01*
X71910096Y-75802810D01*
X72877715Y-75367381D02*
X72926096Y-75319000D01*
X73022858Y-75270619D01*
X73264762Y-75270619D01*
X73361524Y-75319000D01*
X73409905Y-75367381D01*
X73458286Y-75464143D01*
X73458286Y-75560905D01*
X73409905Y-75706048D01*
X72829334Y-76286619D01*
X73458286Y-76286619D01*
X72490667Y-78826619D02*
X72152001Y-78342810D01*
X71910096Y-78826619D02*
X71910096Y-77810619D01*
X72297143Y-77810619D01*
X72393905Y-77859000D01*
X72442286Y-77907381D01*
X72490667Y-78004143D01*
X72490667Y-78149286D01*
X72442286Y-78246048D01*
X72393905Y-78294429D01*
X72297143Y-78342810D01*
X71910096Y-78342810D01*
X73458286Y-78826619D02*
X72877715Y-78826619D01*
X73168001Y-78826619D02*
X73168001Y-77810619D01*
X73071239Y-77955762D01*
X72974477Y-78052524D01*
X72877715Y-78100905D01*
D14*
X98969000Y-41564714D02*
X98897571Y-41636143D01*
X98683285Y-41707571D01*
X98540428Y-41707571D01*
X98326143Y-41636143D01*
X98183285Y-41493286D01*
X98111857Y-41350429D01*
X98040428Y-41064714D01*
X98040428Y-40850429D01*
X98111857Y-40564714D01*
X98183285Y-40421857D01*
X98326143Y-40279000D01*
X98540428Y-40207571D01*
X98683285Y-40207571D01*
X98897571Y-40279000D01*
X98969000Y-40350429D01*
X100326143Y-41707571D02*
X99611857Y-41707571D01*
X99611857Y-40207571D01*
X100826143Y-41707571D02*
X100826143Y-40207571D01*
X101540429Y-41707571D02*
X101540429Y-40207571D01*
X102111857Y-40207571D01*
X102254715Y-40279000D01*
X102326143Y-40350429D01*
X102397572Y-40493286D01*
X102397572Y-40707571D01*
X102326143Y-40850429D01*
X102254715Y-40921857D01*
X102111857Y-40993286D01*
X101540429Y-40993286D01*
X98826000Y-84863714D02*
X98754571Y-84935143D01*
X98540285Y-85006571D01*
X98397428Y-85006571D01*
X98183143Y-84935143D01*
X98040285Y-84792286D01*
X97968857Y-84649429D01*
X97897428Y-84363714D01*
X97897428Y-84149429D01*
X97968857Y-83863714D01*
X98040285Y-83720857D01*
X98183143Y-83578000D01*
X98397428Y-83506571D01*
X98540285Y-83506571D01*
X98754571Y-83578000D01*
X98826000Y-83649429D01*
X100183143Y-85006571D02*
X99468857Y-85006571D01*
X99468857Y-83506571D01*
X100683143Y-85006571D02*
X100683143Y-83506571D01*
X101397429Y-85006571D02*
X101397429Y-83506571D01*
X101968857Y-83506571D01*
X102111715Y-83578000D01*
X102183143Y-83649429D01*
X102254572Y-83792286D01*
X102254572Y-84006571D01*
X102183143Y-84149429D01*
X102111715Y-84220857D01*
X101968857Y-84292286D01*
X101397429Y-84292286D01*
%LPC*%
D16*
X62230000Y-84582000D03*
D17*
X59690000Y-84582000D03*
D18*
X53610000Y-82812000D03*
D19*
X53610000Y-80272000D03*
X53610000Y-77732000D03*
X53610000Y-75192000D03*
X53610000Y-72652000D03*
X53610000Y-70112000D03*
X53610000Y-67572000D03*
X53610000Y-65032000D03*
X91075000Y-61222000D03*
X91075000Y-58682000D03*
X91075000Y-56142000D03*
X91075000Y-53602000D03*
X91075000Y-51062000D03*
X91075000Y-48522000D03*
X91075000Y-45982000D03*
X91075000Y-43442000D03*
X80915000Y-43442000D03*
X80915000Y-45982000D03*
X80915000Y-48522000D03*
X80915000Y-51062000D03*
X80915000Y-53602000D03*
X80915000Y-56142000D03*
D20*
X80915000Y-58682000D03*
X80915000Y-61222000D03*
D16*
X95870000Y-64308000D03*
D17*
X95870000Y-61768000D03*
D18*
X56150000Y-82812000D03*
D19*
X56150000Y-80272000D03*
X56150000Y-77732000D03*
X56150000Y-75192000D03*
D18*
X53610000Y-62492000D03*
D19*
X53610000Y-59952000D03*
X53610000Y-57412000D03*
X53610000Y-54872000D03*
X53610000Y-52332000D03*
X53610000Y-49792000D03*
X53610000Y-47252000D03*
X53610000Y-44712000D03*
D18*
X69850000Y-84582000D03*
D19*
X72390000Y-84582000D03*
X74930000Y-84582000D03*
X77470000Y-84582000D03*
D18*
X83455000Y-40267000D03*
D19*
X80915000Y-40267000D03*
X78375000Y-40267000D03*
X75835000Y-40267000D03*
D18*
X56150000Y-62492000D03*
D19*
X56150000Y-59952000D03*
X56150000Y-57412000D03*
X56150000Y-54872000D03*
D18*
X75200000Y-62492000D03*
D19*
X75200000Y-59952000D03*
X75200000Y-57412000D03*
X75200000Y-54872000D03*
X75200000Y-52332000D03*
X75200000Y-49792000D03*
X75200000Y-47252000D03*
X75200000Y-44712000D03*
D17*
X70041260Y-75192000D03*
X59881260Y-75192000D03*
X70041260Y-67572000D03*
X59881260Y-67572000D03*
X70041260Y-65032000D03*
X59881260Y-65032000D03*
X59881260Y-62492000D03*
X70041260Y-62492000D03*
X59881260Y-59952000D03*
X70041260Y-59952000D03*
X59881260Y-57412000D03*
X70041260Y-57412000D03*
X59881260Y-54872000D03*
X70041260Y-54872000D03*
X59881260Y-52332000D03*
X70041260Y-52332000D03*
X59881260Y-49792000D03*
X70041260Y-49792000D03*
X59881260Y-47252000D03*
X70041260Y-47252000D03*
X59881260Y-44712000D03*
X70041260Y-44712000D03*
D21*
X108316000Y-65832000D03*
X108316000Y-62022000D03*
X100696000Y-65832000D03*
X100696000Y-62022000D03*
D18*
X66040000Y-84582000D03*
D17*
X70041260Y-77732000D03*
X59881260Y-77732000D03*
D19*
X91075000Y-84082000D03*
X91075000Y-81542000D03*
X91075000Y-79002000D03*
X91075000Y-76462000D03*
X91075000Y-73922000D03*
X91075000Y-71382000D03*
X91075000Y-68842000D03*
X91075000Y-66302000D03*
D20*
X80915000Y-66302000D03*
D19*
X80915000Y-68842000D03*
X80915000Y-71382000D03*
X80915000Y-73922000D03*
X80915000Y-76462000D03*
X80915000Y-79002000D03*
X80915000Y-81542000D03*
X80915000Y-84082000D03*
D22*
X96155000Y-44077000D03*
X104079800Y-44077000D03*
X100117400Y-44077000D03*
X104140000Y-81280000D03*
X96215200Y-81280000D03*
X100177600Y-81280000D03*
M02*
