%FSLAX46Y46*%
G04 Gerber Fmt 4.6, Leading zero omitted, Abs format (unit mm)*
G04 Created by KiCad (PCBNEW (2014-09-19 BZR 5142)-product) date Wed 08 Oct 2014 09:05:39 PM EDT*
%MOMM*%
G01*
G04 APERTURE LIST*
%ADD10C,0.100000*%
%ADD11R,1.998980X1.998980*%
%ADD12C,1.998980*%
%ADD13R,1.879600X1.879600*%
%ADD14C,1.879600*%
%ADD15C,1.727200*%
%ADD16C,2.286000*%
%ADD17C,3.000000*%
%ADD18C,1.270000*%
%ADD19C,1.524000*%
%ADD20C,0.500000*%
%ADD21C,0.762000*%
%ADD22C,0.254000*%
%ADD23C,0.508000*%
%ADD24C,1.778000*%
%ADD25C,2.540000*%
G04 APERTURE END LIST*
D10*
D11*
X62230000Y-84582000D03*
D12*
X59690000Y-84582000D03*
D13*
X53610000Y-82812000D03*
D14*
X53610000Y-80272000D03*
X53610000Y-77732000D03*
X53610000Y-75192000D03*
X53610000Y-72652000D03*
X53610000Y-70112000D03*
X53610000Y-67572000D03*
X53610000Y-65032000D03*
X91075000Y-61222000D03*
X91075000Y-58682000D03*
X91075000Y-56142000D03*
X91075000Y-53602000D03*
X91075000Y-51062000D03*
X91075000Y-48522000D03*
X91075000Y-45982000D03*
X91075000Y-43442000D03*
X80915000Y-43442000D03*
X80915000Y-45982000D03*
X80915000Y-48522000D03*
X80915000Y-51062000D03*
X80915000Y-53602000D03*
X80915000Y-56142000D03*
D15*
X80915000Y-58682000D03*
X80915000Y-61222000D03*
D11*
X95870000Y-64308000D03*
D12*
X95870000Y-61768000D03*
D13*
X56150000Y-82812000D03*
D14*
X56150000Y-80272000D03*
X56150000Y-77732000D03*
X56150000Y-75192000D03*
D13*
X53610000Y-62492000D03*
D14*
X53610000Y-59952000D03*
X53610000Y-57412000D03*
X53610000Y-54872000D03*
X53610000Y-52332000D03*
X53610000Y-49792000D03*
X53610000Y-47252000D03*
X53610000Y-44712000D03*
D13*
X69850000Y-84582000D03*
D14*
X72390000Y-84582000D03*
X74930000Y-84582000D03*
X77470000Y-84582000D03*
D13*
X83455000Y-40267000D03*
D14*
X80915000Y-40267000D03*
X78375000Y-40267000D03*
X75835000Y-40267000D03*
D13*
X56150000Y-62492000D03*
D14*
X56150000Y-59952000D03*
X56150000Y-57412000D03*
X56150000Y-54872000D03*
D13*
X75200000Y-62492000D03*
D14*
X75200000Y-59952000D03*
X75200000Y-57412000D03*
X75200000Y-54872000D03*
X75200000Y-52332000D03*
X75200000Y-49792000D03*
X75200000Y-47252000D03*
X75200000Y-44712000D03*
D12*
X70041260Y-75192000D03*
X59881260Y-75192000D03*
X70041260Y-67572000D03*
X59881260Y-67572000D03*
X70041260Y-65032000D03*
X59881260Y-65032000D03*
X59881260Y-62492000D03*
X70041260Y-62492000D03*
X59881260Y-59952000D03*
X70041260Y-59952000D03*
X59881260Y-57412000D03*
X70041260Y-57412000D03*
X59881260Y-54872000D03*
X70041260Y-54872000D03*
X59881260Y-52332000D03*
X70041260Y-52332000D03*
X59881260Y-49792000D03*
X70041260Y-49792000D03*
X59881260Y-47252000D03*
X70041260Y-47252000D03*
X59881260Y-44712000D03*
X70041260Y-44712000D03*
D16*
X108316000Y-65832000D03*
X108316000Y-62022000D03*
X100696000Y-65832000D03*
X100696000Y-62022000D03*
D13*
X66040000Y-84582000D03*
D12*
X70041260Y-77732000D03*
X59881260Y-77732000D03*
D14*
X91075000Y-84082000D03*
X91075000Y-81542000D03*
X91075000Y-79002000D03*
X91075000Y-76462000D03*
X91075000Y-73922000D03*
X91075000Y-71382000D03*
X91075000Y-68842000D03*
X91075000Y-66302000D03*
D15*
X80915000Y-66302000D03*
D14*
X80915000Y-68842000D03*
X80915000Y-71382000D03*
X80915000Y-73922000D03*
X80915000Y-76462000D03*
X80915000Y-79002000D03*
X80915000Y-81542000D03*
X80915000Y-84082000D03*
D17*
X96155000Y-44077000D03*
X104079800Y-44077000D03*
X100117400Y-44077000D03*
X104140000Y-81280000D03*
X96215200Y-81280000D03*
X100177600Y-81280000D03*
D18*
X57828991Y-86459491D02*
X57356500Y-85987000D01*
X57828991Y-86459491D02*
X57828991Y-86443009D01*
X57828991Y-86443009D02*
X59690000Y-84582000D01*
D19*
X56150000Y-82812000D02*
X56150000Y-84780500D01*
X56150000Y-84780500D02*
X57356500Y-85987000D01*
D18*
X80915000Y-84082000D02*
X80915000Y-86725000D01*
D20*
X69850000Y-86021800D02*
X69200000Y-86671800D01*
X69850000Y-84582000D02*
X69850000Y-86021800D01*
D21*
X80915000Y-40267000D02*
X79975201Y-41206799D01*
X79975201Y-41206799D02*
X79645000Y-41537000D01*
D22*
X72390000Y-80264000D02*
X57912000Y-80264000D01*
X57912000Y-80264000D02*
X57912000Y-59174000D01*
X57912000Y-59174000D02*
X56150000Y-57412000D01*
D23*
X58055000Y-52967000D02*
X58055000Y-56409479D01*
X57992278Y-56472201D02*
X58055000Y-56409479D01*
X56150000Y-57412000D02*
X57089799Y-56472201D01*
X57089799Y-56472201D02*
X57992278Y-56472201D01*
X56150000Y-51062000D02*
X58055000Y-52967000D01*
X56150000Y-41537000D02*
X56150000Y-51062000D01*
D18*
X72390000Y-84582000D02*
X72390000Y-82687113D01*
D22*
X72390000Y-82687113D02*
X72390000Y-80264000D01*
X73160000Y-77732000D02*
X74930000Y-79502000D01*
X70041260Y-77732000D02*
X73160000Y-77732000D01*
X74930000Y-79502000D02*
X74930000Y-84582000D01*
X75387210Y-82499210D02*
X77470000Y-84582000D01*
X75387209Y-79312617D02*
X75387210Y-82499210D01*
X70041260Y-75192000D02*
X72065260Y-77216000D01*
X72065260Y-77216000D02*
X73290592Y-77216000D01*
X73290592Y-77216000D02*
X75387209Y-79312617D01*
D24*
X94728856Y-75035856D02*
X94885000Y-75192000D01*
X93615000Y-75035856D02*
X94728856Y-75035856D01*
X91075000Y-71382000D02*
X92345000Y-71382000D01*
X92345000Y-79002000D02*
X91075000Y-79002000D01*
X92345000Y-71382000D02*
X93615000Y-72652000D01*
X93615000Y-77732000D02*
X92345000Y-79002000D01*
X93615000Y-72652000D02*
X93615000Y-75035856D01*
X93615000Y-75035856D02*
X93615000Y-77732000D01*
D25*
X99173856Y-75035856D02*
X104156000Y-80018000D01*
X99173856Y-75035856D02*
X94728856Y-75035856D01*
X104140000Y-80034000D02*
X104156000Y-80018000D01*
X104140000Y-81280000D02*
X104140000Y-80034000D01*
D24*
X92345000Y-48522000D02*
X91075000Y-48522000D01*
X93615000Y-49792000D02*
X92345000Y-48522000D01*
X92345000Y-56142000D02*
X93615000Y-54872000D01*
X91075000Y-56142000D02*
X92345000Y-56142000D01*
X93657966Y-52332000D02*
X93615000Y-52289034D01*
X94885000Y-52332000D02*
X93657966Y-52332000D01*
X93615000Y-52289034D02*
X93615000Y-49792000D01*
X93615000Y-54872000D02*
X93615000Y-52289034D01*
D25*
X94885000Y-52332000D02*
X99560000Y-52332000D01*
X104079800Y-47812200D02*
X104079800Y-44077000D01*
X99560000Y-52332000D02*
X104079800Y-47812200D01*
D23*
X91710000Y-61857000D02*
X91075000Y-61222000D01*
X87265000Y-61222000D02*
X87265000Y-84082000D01*
D18*
X87265000Y-84082000D02*
X91075000Y-84082000D01*
D24*
X83455000Y-57055640D02*
X87621360Y-61222000D01*
D19*
X83455000Y-40267000D02*
X83455000Y-57055640D01*
D23*
X87621360Y-61222000D02*
X87265000Y-61222000D01*
D18*
X91075000Y-61222000D02*
X87621360Y-61222000D01*
D22*
X99896000Y-61222000D02*
X100696000Y-62022000D01*
X91075000Y-61222000D02*
X99896000Y-61222000D01*
X100696000Y-62022000D02*
X108316000Y-62022000D01*
X95870000Y-61768000D02*
X97394000Y-61768000D01*
X97648000Y-62022000D02*
X100696000Y-62022000D01*
X97394000Y-61768000D02*
X97648000Y-62022000D01*
G36*
X81407000Y-87195000D02*
X69723000Y-87195000D01*
X69723000Y-85998050D01*
X69723000Y-84709000D01*
X69723000Y-84455000D01*
X69723000Y-83165950D01*
X69564250Y-83007200D01*
X68783891Y-83007200D01*
X68550502Y-83103873D01*
X68371873Y-83282501D01*
X68275200Y-83515890D01*
X68275200Y-83768509D01*
X68275200Y-84296250D01*
X68433950Y-84455000D01*
X69723000Y-84455000D01*
X69723000Y-84709000D01*
X68433950Y-84709000D01*
X68275200Y-84867750D01*
X68275200Y-85395491D01*
X68275200Y-85648110D01*
X68371873Y-85881499D01*
X68550502Y-86060127D01*
X68783891Y-86156800D01*
X69564250Y-86156800D01*
X69723000Y-85998050D01*
X69723000Y-87195000D01*
X67614800Y-87195000D01*
X67614800Y-85648110D01*
X67614800Y-85395491D01*
X67614800Y-83515891D01*
X67518127Y-83282502D01*
X67339499Y-83103873D01*
X67106110Y-83007200D01*
X66853491Y-83007200D01*
X64973891Y-83007200D01*
X64740502Y-83103873D01*
X64561873Y-83282501D01*
X64465200Y-83515890D01*
X64465200Y-83768509D01*
X64465200Y-85648109D01*
X64561873Y-85881498D01*
X64740501Y-86060127D01*
X64973890Y-86156800D01*
X65226509Y-86156800D01*
X67106109Y-86156800D01*
X67339498Y-86060127D01*
X67518127Y-85881499D01*
X67614800Y-85648110D01*
X67614800Y-87195000D01*
X63864490Y-87195000D01*
X63864490Y-85707800D01*
X63864490Y-85455181D01*
X63864490Y-83456201D01*
X63767817Y-83222812D01*
X63589189Y-83044183D01*
X63355800Y-82947510D01*
X63103181Y-82947510D01*
X61104201Y-82947510D01*
X60870812Y-83044183D01*
X60692183Y-83222811D01*
X60636092Y-83358225D01*
X60563958Y-83163035D01*
X59954418Y-82936599D01*
X59304623Y-82960659D01*
X58816042Y-83163035D01*
X58717443Y-83429837D01*
X59690000Y-84402395D01*
X59704142Y-84388252D01*
X59883747Y-84567857D01*
X59869605Y-84582000D01*
X59883747Y-84596142D01*
X59704142Y-84775747D01*
X59690000Y-84761605D01*
X59510395Y-84941210D01*
X59510395Y-84582000D01*
X58537837Y-83609443D01*
X58271035Y-83708042D01*
X58044599Y-84317582D01*
X58068659Y-84967377D01*
X58271035Y-85455958D01*
X58537837Y-85554557D01*
X59510395Y-84582000D01*
X59510395Y-84941210D01*
X58717443Y-85734163D01*
X58816042Y-86000965D01*
X59425582Y-86227401D01*
X60075377Y-86203341D01*
X60563958Y-86000965D01*
X60636092Y-85805773D01*
X60692183Y-85941188D01*
X60870811Y-86119817D01*
X61104200Y-86216490D01*
X61356819Y-86216490D01*
X63355799Y-86216490D01*
X63589188Y-86119817D01*
X63767817Y-85941189D01*
X63864490Y-85707800D01*
X63864490Y-87195000D01*
X57724800Y-87195000D01*
X57724800Y-83878109D01*
X57724800Y-83097750D01*
X57566050Y-82939000D01*
X56277000Y-82939000D01*
X56277000Y-84228050D01*
X56435750Y-84386800D01*
X56963491Y-84386800D01*
X57216110Y-84386800D01*
X57449499Y-84290127D01*
X57628127Y-84111498D01*
X57724800Y-83878109D01*
X57724800Y-87195000D01*
X55499000Y-87195000D01*
X55499000Y-84386800D01*
X55864250Y-84386800D01*
X56023000Y-84228050D01*
X56023000Y-82939000D01*
X56003000Y-82939000D01*
X56003000Y-82685000D01*
X56023000Y-82685000D01*
X56023000Y-82665000D01*
X56277000Y-82665000D01*
X56277000Y-82685000D01*
X57566050Y-82685000D01*
X57724800Y-82526250D01*
X57724800Y-82169000D01*
X69977000Y-82169000D01*
X69977000Y-83165950D01*
X69977000Y-84455000D01*
X69977000Y-84709000D01*
X69977000Y-85998050D01*
X69977000Y-86106000D01*
X69977000Y-86487000D01*
X80391000Y-86487000D01*
X80391000Y-85725000D01*
X81407000Y-85725000D01*
X81407000Y-87195000D01*
X81407000Y-87195000D01*
G37*
X81407000Y-87195000D02*
X69723000Y-87195000D01*
X69723000Y-85998050D01*
X69723000Y-84709000D01*
X69723000Y-84455000D01*
X69723000Y-83165950D01*
X69564250Y-83007200D01*
X68783891Y-83007200D01*
X68550502Y-83103873D01*
X68371873Y-83282501D01*
X68275200Y-83515890D01*
X68275200Y-83768509D01*
X68275200Y-84296250D01*
X68433950Y-84455000D01*
X69723000Y-84455000D01*
X69723000Y-84709000D01*
X68433950Y-84709000D01*
X68275200Y-84867750D01*
X68275200Y-85395491D01*
X68275200Y-85648110D01*
X68371873Y-85881499D01*
X68550502Y-86060127D01*
X68783891Y-86156800D01*
X69564250Y-86156800D01*
X69723000Y-85998050D01*
X69723000Y-87195000D01*
X67614800Y-87195000D01*
X67614800Y-85648110D01*
X67614800Y-85395491D01*
X67614800Y-83515891D01*
X67518127Y-83282502D01*
X67339499Y-83103873D01*
X67106110Y-83007200D01*
X66853491Y-83007200D01*
X64973891Y-83007200D01*
X64740502Y-83103873D01*
X64561873Y-83282501D01*
X64465200Y-83515890D01*
X64465200Y-83768509D01*
X64465200Y-85648109D01*
X64561873Y-85881498D01*
X64740501Y-86060127D01*
X64973890Y-86156800D01*
X65226509Y-86156800D01*
X67106109Y-86156800D01*
X67339498Y-86060127D01*
X67518127Y-85881499D01*
X67614800Y-85648110D01*
X67614800Y-87195000D01*
X63864490Y-87195000D01*
X63864490Y-85707800D01*
X63864490Y-85455181D01*
X63864490Y-83456201D01*
X63767817Y-83222812D01*
X63589189Y-83044183D01*
X63355800Y-82947510D01*
X63103181Y-82947510D01*
X61104201Y-82947510D01*
X60870812Y-83044183D01*
X60692183Y-83222811D01*
X60636092Y-83358225D01*
X60563958Y-83163035D01*
X59954418Y-82936599D01*
X59304623Y-82960659D01*
X58816042Y-83163035D01*
X58717443Y-83429837D01*
X59690000Y-84402395D01*
X59704142Y-84388252D01*
X59883747Y-84567857D01*
X59869605Y-84582000D01*
X59883747Y-84596142D01*
X59704142Y-84775747D01*
X59690000Y-84761605D01*
X59510395Y-84941210D01*
X59510395Y-84582000D01*
X58537837Y-83609443D01*
X58271035Y-83708042D01*
X58044599Y-84317582D01*
X58068659Y-84967377D01*
X58271035Y-85455958D01*
X58537837Y-85554557D01*
X59510395Y-84582000D01*
X59510395Y-84941210D01*
X58717443Y-85734163D01*
X58816042Y-86000965D01*
X59425582Y-86227401D01*
X60075377Y-86203341D01*
X60563958Y-86000965D01*
X60636092Y-85805773D01*
X60692183Y-85941188D01*
X60870811Y-86119817D01*
X61104200Y-86216490D01*
X61356819Y-86216490D01*
X63355799Y-86216490D01*
X63589188Y-86119817D01*
X63767817Y-85941189D01*
X63864490Y-85707800D01*
X63864490Y-87195000D01*
X57724800Y-87195000D01*
X57724800Y-83878109D01*
X57724800Y-83097750D01*
X57566050Y-82939000D01*
X56277000Y-82939000D01*
X56277000Y-84228050D01*
X56435750Y-84386800D01*
X56963491Y-84386800D01*
X57216110Y-84386800D01*
X57449499Y-84290127D01*
X57628127Y-84111498D01*
X57724800Y-83878109D01*
X57724800Y-87195000D01*
X55499000Y-87195000D01*
X55499000Y-84386800D01*
X55864250Y-84386800D01*
X56023000Y-84228050D01*
X56023000Y-82939000D01*
X56003000Y-82939000D01*
X56003000Y-82685000D01*
X56023000Y-82685000D01*
X56023000Y-82665000D01*
X56277000Y-82665000D01*
X56277000Y-82685000D01*
X57566050Y-82685000D01*
X57724800Y-82526250D01*
X57724800Y-82169000D01*
X69977000Y-82169000D01*
X69977000Y-83165950D01*
X69977000Y-84455000D01*
X69977000Y-84709000D01*
X69977000Y-85998050D01*
X69977000Y-86106000D01*
X69977000Y-86487000D01*
X80391000Y-86487000D01*
X80391000Y-85725000D01*
X81407000Y-85725000D01*
X81407000Y-87195000D01*
G36*
X109685000Y-67991000D02*
X102484062Y-67991000D01*
X102484062Y-62320667D01*
X102462249Y-61613671D01*
X102233658Y-61061806D01*
X101951963Y-60945642D01*
X101772358Y-61125247D01*
X101772358Y-60766037D01*
X101656194Y-60484342D01*
X100994667Y-60233938D01*
X100287671Y-60255751D01*
X99735806Y-60484342D01*
X99619642Y-60766037D01*
X100696000Y-61842395D01*
X101772358Y-60766037D01*
X101772358Y-61125247D01*
X100875605Y-62022000D01*
X101951963Y-63098358D01*
X102233658Y-62982194D01*
X102484062Y-62320667D01*
X102484062Y-67991000D01*
X102474308Y-67991000D01*
X102474308Y-65479886D01*
X102204194Y-64826160D01*
X101772358Y-64393569D01*
X101772358Y-63277963D01*
X100696000Y-62201605D01*
X100516395Y-62381210D01*
X100516395Y-62022000D01*
X99440037Y-60945642D01*
X99158342Y-61061806D01*
X98907938Y-61723333D01*
X98929751Y-62430329D01*
X99158342Y-62982194D01*
X99440037Y-63098358D01*
X100516395Y-62022000D01*
X100516395Y-62381210D01*
X99619642Y-63277963D01*
X99735806Y-63559658D01*
X100397333Y-63810062D01*
X101104329Y-63788249D01*
X101656194Y-63559658D01*
X101772358Y-63277963D01*
X101772358Y-64393569D01*
X101704471Y-64325564D01*
X101051218Y-64054309D01*
X100343886Y-64053692D01*
X99690160Y-64323806D01*
X99189564Y-64823529D01*
X98918309Y-65476782D01*
X98917692Y-66184114D01*
X99187806Y-66837840D01*
X99687529Y-67338436D01*
X100340782Y-67609691D01*
X101048114Y-67610308D01*
X101701840Y-67340194D01*
X102202436Y-66840471D01*
X102473691Y-66187218D01*
X102474308Y-65479886D01*
X102474308Y-67991000D01*
X97515401Y-67991000D01*
X97515401Y-62032418D01*
X97491341Y-61382623D01*
X97288965Y-60894042D01*
X97022163Y-60795443D01*
X96842557Y-60975048D01*
X96842557Y-60615837D01*
X96743958Y-60349035D01*
X96134418Y-60122599D01*
X95484623Y-60146659D01*
X94996042Y-60349035D01*
X94897443Y-60615837D01*
X95870000Y-61588395D01*
X96842557Y-60615837D01*
X96842557Y-60975048D01*
X96049605Y-61768000D01*
X96063747Y-61782142D01*
X95884142Y-61961747D01*
X95870000Y-61947605D01*
X95855857Y-61961747D01*
X95676252Y-61782142D01*
X95690395Y-61768000D01*
X94717837Y-60795443D01*
X94451035Y-60894042D01*
X94224599Y-61503582D01*
X94248659Y-62153377D01*
X94451035Y-62641958D01*
X94646226Y-62714092D01*
X94510812Y-62770183D01*
X94332183Y-62948811D01*
X94235510Y-63182200D01*
X94235510Y-63434819D01*
X94235510Y-65433799D01*
X94332183Y-65667188D01*
X94510811Y-65845817D01*
X94744200Y-65942490D01*
X94996819Y-65942490D01*
X96995799Y-65942490D01*
X97229188Y-65845817D01*
X97407817Y-65667189D01*
X97504490Y-65433800D01*
X97504490Y-65181181D01*
X97504490Y-63182201D01*
X97407817Y-62948812D01*
X97229189Y-62770183D01*
X97093774Y-62714092D01*
X97288965Y-62641958D01*
X97515401Y-62032418D01*
X97515401Y-67991000D01*
X93203000Y-67991000D01*
X93203000Y-64944467D01*
X92661045Y-64938170D01*
X92661045Y-61472167D01*
X92636049Y-60846172D01*
X92444580Y-60383923D01*
X92183968Y-60292637D01*
X91254605Y-61222000D01*
X92183968Y-62151363D01*
X92444580Y-62060077D01*
X92661045Y-61472167D01*
X92661045Y-64938170D01*
X92004363Y-64930541D01*
X92004363Y-62330968D01*
X91075000Y-61401605D01*
X90895395Y-61581210D01*
X90895395Y-61222000D01*
X89966032Y-60292637D01*
X89705420Y-60383923D01*
X89488955Y-60971833D01*
X89513951Y-61597828D01*
X89705420Y-62060077D01*
X89966032Y-62151363D01*
X90895395Y-61222000D01*
X90895395Y-61581210D01*
X90145637Y-62330968D01*
X90236923Y-62591580D01*
X90824833Y-62808045D01*
X91450828Y-62783049D01*
X91913077Y-62591580D01*
X92004363Y-62330968D01*
X92004363Y-64930541D01*
X91875045Y-64929039D01*
X91389621Y-64727474D01*
X90763127Y-64726927D01*
X90317761Y-64910948D01*
X89678000Y-64903516D01*
X89678000Y-65559848D01*
X89500474Y-65987379D01*
X89499927Y-66613873D01*
X89678000Y-67044842D01*
X89678000Y-68099848D01*
X89500474Y-68527379D01*
X89499927Y-69153873D01*
X89678000Y-69584842D01*
X89678000Y-70639848D01*
X89500474Y-71067379D01*
X89499927Y-71693873D01*
X89678000Y-72124842D01*
X89678000Y-73179848D01*
X89500474Y-73607379D01*
X89499927Y-74233873D01*
X89678000Y-74664842D01*
X89678000Y-75719848D01*
X89500474Y-76147379D01*
X89499927Y-76773873D01*
X89678000Y-77204842D01*
X89678000Y-78259848D01*
X89500474Y-78687379D01*
X89499927Y-79313873D01*
X89678000Y-79744842D01*
X89678000Y-80799848D01*
X89500474Y-81227379D01*
X89499927Y-81853873D01*
X89678000Y-82284842D01*
X89678000Y-82812000D01*
X89678000Y-83318394D01*
X89488955Y-83831833D01*
X89513951Y-84457828D01*
X89678000Y-84853878D01*
X89678000Y-85225000D01*
X82312000Y-85225000D01*
X82312000Y-84824151D01*
X82489526Y-84396621D01*
X82490073Y-83770127D01*
X82312000Y-83339157D01*
X82312000Y-82284151D01*
X82489526Y-81856621D01*
X82490073Y-81230127D01*
X82312000Y-80799157D01*
X82312000Y-79744151D01*
X82489526Y-79316621D01*
X82490073Y-78690127D01*
X82312000Y-78259157D01*
X82312000Y-77204151D01*
X82489526Y-76776621D01*
X82490073Y-76150127D01*
X82312000Y-75719157D01*
X82312000Y-74664151D01*
X82489526Y-74236621D01*
X82490073Y-73610127D01*
X82312000Y-73179157D01*
X82312000Y-72124151D01*
X82489526Y-71696621D01*
X82490073Y-71070127D01*
X82312000Y-70639157D01*
X82312000Y-69584151D01*
X82489526Y-69156621D01*
X82490073Y-68530127D01*
X82312000Y-68099157D01*
X82312000Y-66845449D01*
X82413339Y-66601398D01*
X82413859Y-66005218D01*
X82312000Y-65758699D01*
X82312000Y-61765449D01*
X82413339Y-61521398D01*
X82413859Y-60925218D01*
X82312000Y-60678699D01*
X82312000Y-59225449D01*
X82413339Y-58981398D01*
X82413859Y-58385218D01*
X82312000Y-58138699D01*
X82312000Y-56884151D01*
X82489526Y-56456621D01*
X82490073Y-55830127D01*
X82312000Y-55399157D01*
X82312000Y-54344151D01*
X82489526Y-53916621D01*
X82490073Y-53290127D01*
X82312000Y-52859157D01*
X82312000Y-51804151D01*
X82489526Y-51376621D01*
X82490073Y-50750127D01*
X82312000Y-50319157D01*
X82312000Y-49264151D01*
X82489526Y-48836621D01*
X82490073Y-48210127D01*
X82312000Y-47779157D01*
X82312000Y-46724151D01*
X82489526Y-46296621D01*
X82490073Y-45670127D01*
X82312000Y-45239157D01*
X82312000Y-44184151D01*
X82489526Y-43756621D01*
X82490073Y-43130127D01*
X82409034Y-42934000D01*
X89580771Y-42934000D01*
X89500474Y-43127379D01*
X89499927Y-43753873D01*
X89678000Y-44184842D01*
X89678000Y-45239848D01*
X89500474Y-45667379D01*
X89499927Y-46293873D01*
X89678000Y-46724842D01*
X89678000Y-47779848D01*
X89500474Y-48207379D01*
X89499927Y-48833873D01*
X89678000Y-49264842D01*
X89678000Y-50319848D01*
X89500474Y-50747379D01*
X89499927Y-51373873D01*
X89678000Y-51804842D01*
X89678000Y-52859848D01*
X89500474Y-53287379D01*
X89499927Y-53913873D01*
X89678000Y-54344842D01*
X89678000Y-55399848D01*
X89500474Y-55827379D01*
X89499927Y-56453873D01*
X89678000Y-56884842D01*
X89678000Y-57939848D01*
X89500474Y-58367379D01*
X89499927Y-58993873D01*
X89678000Y-59424842D01*
X89678000Y-60079000D01*
X90157557Y-60079000D01*
X90145637Y-60113032D01*
X91075000Y-61042395D01*
X92004363Y-60113032D01*
X91992442Y-60079000D01*
X93107000Y-60079000D01*
X93107000Y-58809282D01*
X109685000Y-58846091D01*
X109685000Y-60992255D01*
X109571963Y-60945642D01*
X109392358Y-61125247D01*
X109392358Y-60766037D01*
X109276194Y-60484342D01*
X108614667Y-60233938D01*
X107907671Y-60255751D01*
X107355806Y-60484342D01*
X107239642Y-60766037D01*
X108316000Y-61842395D01*
X109392358Y-60766037D01*
X109392358Y-61125247D01*
X108495605Y-62022000D01*
X109571963Y-63098358D01*
X109685000Y-63051744D01*
X109685000Y-64686722D01*
X109392358Y-64393569D01*
X109392358Y-63277963D01*
X108316000Y-62201605D01*
X108136395Y-62381210D01*
X108136395Y-62022000D01*
X107060037Y-60945642D01*
X106778342Y-61061806D01*
X106527938Y-61723333D01*
X106549751Y-62430329D01*
X106778342Y-62982194D01*
X107060037Y-63098358D01*
X108136395Y-62022000D01*
X108136395Y-62381210D01*
X107239642Y-63277963D01*
X107355806Y-63559658D01*
X108017333Y-63810062D01*
X108724329Y-63788249D01*
X109276194Y-63559658D01*
X109392358Y-63277963D01*
X109392358Y-64393569D01*
X109324471Y-64325564D01*
X108671218Y-64054309D01*
X107963886Y-64053692D01*
X107310160Y-64323806D01*
X106809564Y-64823529D01*
X106538309Y-65476782D01*
X106537692Y-66184114D01*
X106807806Y-66837840D01*
X107307529Y-67338436D01*
X107960782Y-67609691D01*
X108668114Y-67610308D01*
X109321840Y-67340194D01*
X109685000Y-66977667D01*
X109685000Y-67991000D01*
X109685000Y-67991000D01*
G37*
X109685000Y-67991000D02*
X102484062Y-67991000D01*
X102484062Y-62320667D01*
X102462249Y-61613671D01*
X102233658Y-61061806D01*
X101951963Y-60945642D01*
X101772358Y-61125247D01*
X101772358Y-60766037D01*
X101656194Y-60484342D01*
X100994667Y-60233938D01*
X100287671Y-60255751D01*
X99735806Y-60484342D01*
X99619642Y-60766037D01*
X100696000Y-61842395D01*
X101772358Y-60766037D01*
X101772358Y-61125247D01*
X100875605Y-62022000D01*
X101951963Y-63098358D01*
X102233658Y-62982194D01*
X102484062Y-62320667D01*
X102484062Y-67991000D01*
X102474308Y-67991000D01*
X102474308Y-65479886D01*
X102204194Y-64826160D01*
X101772358Y-64393569D01*
X101772358Y-63277963D01*
X100696000Y-62201605D01*
X100516395Y-62381210D01*
X100516395Y-62022000D01*
X99440037Y-60945642D01*
X99158342Y-61061806D01*
X98907938Y-61723333D01*
X98929751Y-62430329D01*
X99158342Y-62982194D01*
X99440037Y-63098358D01*
X100516395Y-62022000D01*
X100516395Y-62381210D01*
X99619642Y-63277963D01*
X99735806Y-63559658D01*
X100397333Y-63810062D01*
X101104329Y-63788249D01*
X101656194Y-63559658D01*
X101772358Y-63277963D01*
X101772358Y-64393569D01*
X101704471Y-64325564D01*
X101051218Y-64054309D01*
X100343886Y-64053692D01*
X99690160Y-64323806D01*
X99189564Y-64823529D01*
X98918309Y-65476782D01*
X98917692Y-66184114D01*
X99187806Y-66837840D01*
X99687529Y-67338436D01*
X100340782Y-67609691D01*
X101048114Y-67610308D01*
X101701840Y-67340194D01*
X102202436Y-66840471D01*
X102473691Y-66187218D01*
X102474308Y-65479886D01*
X102474308Y-67991000D01*
X97515401Y-67991000D01*
X97515401Y-62032418D01*
X97491341Y-61382623D01*
X97288965Y-60894042D01*
X97022163Y-60795443D01*
X96842557Y-60975048D01*
X96842557Y-60615837D01*
X96743958Y-60349035D01*
X96134418Y-60122599D01*
X95484623Y-60146659D01*
X94996042Y-60349035D01*
X94897443Y-60615837D01*
X95870000Y-61588395D01*
X96842557Y-60615837D01*
X96842557Y-60975048D01*
X96049605Y-61768000D01*
X96063747Y-61782142D01*
X95884142Y-61961747D01*
X95870000Y-61947605D01*
X95855857Y-61961747D01*
X95676252Y-61782142D01*
X95690395Y-61768000D01*
X94717837Y-60795443D01*
X94451035Y-60894042D01*
X94224599Y-61503582D01*
X94248659Y-62153377D01*
X94451035Y-62641958D01*
X94646226Y-62714092D01*
X94510812Y-62770183D01*
X94332183Y-62948811D01*
X94235510Y-63182200D01*
X94235510Y-63434819D01*
X94235510Y-65433799D01*
X94332183Y-65667188D01*
X94510811Y-65845817D01*
X94744200Y-65942490D01*
X94996819Y-65942490D01*
X96995799Y-65942490D01*
X97229188Y-65845817D01*
X97407817Y-65667189D01*
X97504490Y-65433800D01*
X97504490Y-65181181D01*
X97504490Y-63182201D01*
X97407817Y-62948812D01*
X97229189Y-62770183D01*
X97093774Y-62714092D01*
X97288965Y-62641958D01*
X97515401Y-62032418D01*
X97515401Y-67991000D01*
X93203000Y-67991000D01*
X93203000Y-64944467D01*
X92661045Y-64938170D01*
X92661045Y-61472167D01*
X92636049Y-60846172D01*
X92444580Y-60383923D01*
X92183968Y-60292637D01*
X91254605Y-61222000D01*
X92183968Y-62151363D01*
X92444580Y-62060077D01*
X92661045Y-61472167D01*
X92661045Y-64938170D01*
X92004363Y-64930541D01*
X92004363Y-62330968D01*
X91075000Y-61401605D01*
X90895395Y-61581210D01*
X90895395Y-61222000D01*
X89966032Y-60292637D01*
X89705420Y-60383923D01*
X89488955Y-60971833D01*
X89513951Y-61597828D01*
X89705420Y-62060077D01*
X89966032Y-62151363D01*
X90895395Y-61222000D01*
X90895395Y-61581210D01*
X90145637Y-62330968D01*
X90236923Y-62591580D01*
X90824833Y-62808045D01*
X91450828Y-62783049D01*
X91913077Y-62591580D01*
X92004363Y-62330968D01*
X92004363Y-64930541D01*
X91875045Y-64929039D01*
X91389621Y-64727474D01*
X90763127Y-64726927D01*
X90317761Y-64910948D01*
X89678000Y-64903516D01*
X89678000Y-65559848D01*
X89500474Y-65987379D01*
X89499927Y-66613873D01*
X89678000Y-67044842D01*
X89678000Y-68099848D01*
X89500474Y-68527379D01*
X89499927Y-69153873D01*
X89678000Y-69584842D01*
X89678000Y-70639848D01*
X89500474Y-71067379D01*
X89499927Y-71693873D01*
X89678000Y-72124842D01*
X89678000Y-73179848D01*
X89500474Y-73607379D01*
X89499927Y-74233873D01*
X89678000Y-74664842D01*
X89678000Y-75719848D01*
X89500474Y-76147379D01*
X89499927Y-76773873D01*
X89678000Y-77204842D01*
X89678000Y-78259848D01*
X89500474Y-78687379D01*
X89499927Y-79313873D01*
X89678000Y-79744842D01*
X89678000Y-80799848D01*
X89500474Y-81227379D01*
X89499927Y-81853873D01*
X89678000Y-82284842D01*
X89678000Y-82812000D01*
X89678000Y-83318394D01*
X89488955Y-83831833D01*
X89513951Y-84457828D01*
X89678000Y-84853878D01*
X89678000Y-85225000D01*
X82312000Y-85225000D01*
X82312000Y-84824151D01*
X82489526Y-84396621D01*
X82490073Y-83770127D01*
X82312000Y-83339157D01*
X82312000Y-82284151D01*
X82489526Y-81856621D01*
X82490073Y-81230127D01*
X82312000Y-80799157D01*
X82312000Y-79744151D01*
X82489526Y-79316621D01*
X82490073Y-78690127D01*
X82312000Y-78259157D01*
X82312000Y-77204151D01*
X82489526Y-76776621D01*
X82490073Y-76150127D01*
X82312000Y-75719157D01*
X82312000Y-74664151D01*
X82489526Y-74236621D01*
X82490073Y-73610127D01*
X82312000Y-73179157D01*
X82312000Y-72124151D01*
X82489526Y-71696621D01*
X82490073Y-71070127D01*
X82312000Y-70639157D01*
X82312000Y-69584151D01*
X82489526Y-69156621D01*
X82490073Y-68530127D01*
X82312000Y-68099157D01*
X82312000Y-66845449D01*
X82413339Y-66601398D01*
X82413859Y-66005218D01*
X82312000Y-65758699D01*
X82312000Y-61765449D01*
X82413339Y-61521398D01*
X82413859Y-60925218D01*
X82312000Y-60678699D01*
X82312000Y-59225449D01*
X82413339Y-58981398D01*
X82413859Y-58385218D01*
X82312000Y-58138699D01*
X82312000Y-56884151D01*
X82489526Y-56456621D01*
X82490073Y-55830127D01*
X82312000Y-55399157D01*
X82312000Y-54344151D01*
X82489526Y-53916621D01*
X82490073Y-53290127D01*
X82312000Y-52859157D01*
X82312000Y-51804151D01*
X82489526Y-51376621D01*
X82490073Y-50750127D01*
X82312000Y-50319157D01*
X82312000Y-49264151D01*
X82489526Y-48836621D01*
X82490073Y-48210127D01*
X82312000Y-47779157D01*
X82312000Y-46724151D01*
X82489526Y-46296621D01*
X82490073Y-45670127D01*
X82312000Y-45239157D01*
X82312000Y-44184151D01*
X82489526Y-43756621D01*
X82490073Y-43130127D01*
X82409034Y-42934000D01*
X89580771Y-42934000D01*
X89500474Y-43127379D01*
X89499927Y-43753873D01*
X89678000Y-44184842D01*
X89678000Y-45239848D01*
X89500474Y-45667379D01*
X89499927Y-46293873D01*
X89678000Y-46724842D01*
X89678000Y-47779848D01*
X89500474Y-48207379D01*
X89499927Y-48833873D01*
X89678000Y-49264842D01*
X89678000Y-50319848D01*
X89500474Y-50747379D01*
X89499927Y-51373873D01*
X89678000Y-51804842D01*
X89678000Y-52859848D01*
X89500474Y-53287379D01*
X89499927Y-53913873D01*
X89678000Y-54344842D01*
X89678000Y-55399848D01*
X89500474Y-55827379D01*
X89499927Y-56453873D01*
X89678000Y-56884842D01*
X89678000Y-57939848D01*
X89500474Y-58367379D01*
X89499927Y-58993873D01*
X89678000Y-59424842D01*
X89678000Y-60079000D01*
X90157557Y-60079000D01*
X90145637Y-60113032D01*
X91075000Y-61042395D01*
X92004363Y-60113032D01*
X91992442Y-60079000D01*
X93107000Y-60079000D01*
X93107000Y-58809282D01*
X109685000Y-58846091D01*
X109685000Y-60992255D01*
X109571963Y-60945642D01*
X109392358Y-61125247D01*
X109392358Y-60766037D01*
X109276194Y-60484342D01*
X108614667Y-60233938D01*
X107907671Y-60255751D01*
X107355806Y-60484342D01*
X107239642Y-60766037D01*
X108316000Y-61842395D01*
X109392358Y-60766037D01*
X109392358Y-61125247D01*
X108495605Y-62022000D01*
X109571963Y-63098358D01*
X109685000Y-63051744D01*
X109685000Y-64686722D01*
X109392358Y-64393569D01*
X109392358Y-63277963D01*
X108316000Y-62201605D01*
X108136395Y-62381210D01*
X108136395Y-62022000D01*
X107060037Y-60945642D01*
X106778342Y-61061806D01*
X106527938Y-61723333D01*
X106549751Y-62430329D01*
X106778342Y-62982194D01*
X107060037Y-63098358D01*
X108136395Y-62022000D01*
X108136395Y-62381210D01*
X107239642Y-63277963D01*
X107355806Y-63559658D01*
X108017333Y-63810062D01*
X108724329Y-63788249D01*
X109276194Y-63559658D01*
X109392358Y-63277963D01*
X109392358Y-64393569D01*
X109324471Y-64325564D01*
X108671218Y-64054309D01*
X107963886Y-64053692D01*
X107310160Y-64323806D01*
X106809564Y-64823529D01*
X106538309Y-65476782D01*
X106537692Y-66184114D01*
X106807806Y-66837840D01*
X107307529Y-67338436D01*
X107960782Y-67609691D01*
X108668114Y-67610308D01*
X109321840Y-67340194D01*
X109685000Y-66977667D01*
X109685000Y-67991000D01*
G36*
X72583747Y-84596142D02*
X72404142Y-84775747D01*
X72390000Y-84761605D01*
X72375857Y-84775747D01*
X72196252Y-84596142D01*
X72210395Y-84582000D01*
X72196252Y-84567857D01*
X72375857Y-84388252D01*
X72390000Y-84402395D01*
X72404142Y-84388252D01*
X72583747Y-84567857D01*
X72569605Y-84582000D01*
X72583747Y-84596142D01*
X72583747Y-84596142D01*
G37*
X72583747Y-84596142D02*
X72404142Y-84775747D01*
X72390000Y-84761605D01*
X72375857Y-84775747D01*
X72196252Y-84596142D01*
X72210395Y-84582000D01*
X72196252Y-84567857D01*
X72375857Y-84388252D01*
X72390000Y-84402395D01*
X72404142Y-84388252D01*
X72583747Y-84567857D01*
X72569605Y-84582000D01*
X72583747Y-84596142D01*
G36*
X79778798Y-41186823D02*
X79629000Y-41353266D01*
X79629000Y-42291000D01*
X58293000Y-42291000D01*
X58293000Y-44274802D01*
X58247054Y-44385453D01*
X58246486Y-45035694D01*
X58293000Y-45148266D01*
X58293000Y-46814802D01*
X58247054Y-46925453D01*
X58246486Y-47575694D01*
X58293000Y-47688266D01*
X58293000Y-49354802D01*
X58247054Y-49465453D01*
X58246486Y-50115694D01*
X58293000Y-50228266D01*
X58293000Y-51894802D01*
X58247054Y-52005453D01*
X58246486Y-52655694D01*
X58293000Y-52768266D01*
X58293000Y-54434802D01*
X58247054Y-54545453D01*
X58246486Y-55195694D01*
X58293000Y-55308266D01*
X58293000Y-56974802D01*
X58247054Y-57085453D01*
X58246486Y-57735694D01*
X58293000Y-57848266D01*
X58293000Y-58674000D01*
X58293000Y-59514802D01*
X58247054Y-59625453D01*
X58246486Y-60275694D01*
X58293000Y-60388266D01*
X58293000Y-62054802D01*
X58247054Y-62165453D01*
X58246486Y-62815694D01*
X58293000Y-62928266D01*
X58293000Y-64594802D01*
X58247054Y-64705453D01*
X58246486Y-65355694D01*
X58293000Y-65468266D01*
X58293000Y-67134802D01*
X58247054Y-67245453D01*
X58246486Y-67895694D01*
X58293000Y-68008266D01*
X58293000Y-74754802D01*
X58247054Y-74865453D01*
X58246486Y-75515694D01*
X58293000Y-75628266D01*
X58293000Y-77294802D01*
X58247054Y-77405453D01*
X58246486Y-78055694D01*
X58293000Y-78168266D01*
X58293000Y-79121000D01*
X58964190Y-79121000D01*
X59554713Y-79366206D01*
X60204954Y-79366774D01*
X60799772Y-79121000D01*
X69124190Y-79121000D01*
X69714713Y-79366206D01*
X70364954Y-79366774D01*
X70959772Y-79121000D01*
X73025000Y-79121000D01*
X73025000Y-83058000D01*
X73025000Y-83137648D01*
X72640167Y-82995955D01*
X72014172Y-83020951D01*
X71755000Y-83128303D01*
X71755000Y-81407000D01*
X57736045Y-81407000D01*
X57736045Y-57662167D01*
X57711049Y-57036172D01*
X57519580Y-56573923D01*
X57258968Y-56482637D01*
X56329605Y-57412000D01*
X57258968Y-58341363D01*
X57519580Y-58250077D01*
X57736045Y-57662167D01*
X57736045Y-81407000D01*
X57522625Y-81407000D01*
X57449499Y-81333873D01*
X57354669Y-81294593D01*
X57484272Y-81165217D01*
X57724526Y-80586621D01*
X57725073Y-79960127D01*
X57485829Y-79381113D01*
X57107104Y-79001727D01*
X57484272Y-78625217D01*
X57724526Y-78046621D01*
X57725073Y-77420127D01*
X57485829Y-76841113D01*
X57107104Y-76461727D01*
X57484272Y-76085217D01*
X57724526Y-75506621D01*
X57725073Y-74880127D01*
X57485829Y-74301113D01*
X57043217Y-73857728D01*
X56464621Y-73617474D01*
X55838127Y-73616927D01*
X55259113Y-73856171D01*
X54996191Y-74118633D01*
X54996681Y-73419000D01*
X55184526Y-72966621D01*
X55185073Y-72340127D01*
X54997754Y-71886782D01*
X54998463Y-70874709D01*
X55184526Y-70426621D01*
X55185073Y-69800127D01*
X54999530Y-69351079D01*
X55000244Y-68330419D01*
X55184526Y-67886621D01*
X55185073Y-67260127D01*
X55001305Y-66815375D01*
X55002026Y-65786129D01*
X55184526Y-65346621D01*
X55185073Y-64720127D01*
X55003080Y-64279672D01*
X55003253Y-64033399D01*
X55083890Y-64066800D01*
X55336509Y-64066800D01*
X57216109Y-64066800D01*
X57449498Y-63970127D01*
X57628127Y-63791499D01*
X57724800Y-63558110D01*
X57724800Y-63305491D01*
X57724800Y-61425891D01*
X57628127Y-61192502D01*
X57449499Y-61013873D01*
X57354669Y-60974593D01*
X57484272Y-60845217D01*
X57724526Y-60266621D01*
X57725073Y-59640127D01*
X57485829Y-59061113D01*
X57044885Y-58619398D01*
X57079363Y-58520968D01*
X56150000Y-57591605D01*
X55220637Y-58520968D01*
X55255313Y-58619964D01*
X55006869Y-58867974D01*
X55007000Y-58682044D01*
X55007000Y-58329442D01*
X55041032Y-58341363D01*
X55970395Y-57412000D01*
X55041032Y-56482637D01*
X55007000Y-56494557D01*
X55007000Y-56141941D01*
X55006827Y-55955880D01*
X55255114Y-56204601D01*
X55220637Y-56303032D01*
X56150000Y-57232395D01*
X57079363Y-56303032D01*
X57044686Y-56204035D01*
X57484272Y-55765217D01*
X57724526Y-55186621D01*
X57725073Y-54560127D01*
X57485829Y-53981113D01*
X57043217Y-53537728D01*
X56464621Y-53297474D01*
X55838127Y-53296927D01*
X55259113Y-53536171D01*
X55004822Y-53790018D01*
X55004165Y-53080976D01*
X55184526Y-52646621D01*
X55185073Y-52020127D01*
X55002775Y-51578932D01*
X55001819Y-50546627D01*
X55184526Y-50106621D01*
X55185073Y-49480127D01*
X55000418Y-49033228D01*
X54999472Y-48012278D01*
X55184526Y-47566621D01*
X55185073Y-46940127D01*
X54998060Y-46487523D01*
X54997126Y-45477930D01*
X55184526Y-45026621D01*
X55185073Y-44400127D01*
X54995703Y-43941819D01*
X54991118Y-38989000D01*
X74886183Y-38989000D01*
X74500728Y-39373783D01*
X74260474Y-39952379D01*
X74259927Y-40578873D01*
X74499171Y-41157887D01*
X74941783Y-41601272D01*
X75520379Y-41841526D01*
X76146873Y-41842073D01*
X76725887Y-41602829D01*
X77105272Y-41224104D01*
X77481783Y-41601272D01*
X78060379Y-41841526D01*
X78686873Y-41842073D01*
X79265887Y-41602829D01*
X79707601Y-41161885D01*
X79778798Y-41186823D01*
X79778798Y-41186823D01*
G37*
X79778798Y-41186823D02*
X79629000Y-41353266D01*
X79629000Y-42291000D01*
X58293000Y-42291000D01*
X58293000Y-44274802D01*
X58247054Y-44385453D01*
X58246486Y-45035694D01*
X58293000Y-45148266D01*
X58293000Y-46814802D01*
X58247054Y-46925453D01*
X58246486Y-47575694D01*
X58293000Y-47688266D01*
X58293000Y-49354802D01*
X58247054Y-49465453D01*
X58246486Y-50115694D01*
X58293000Y-50228266D01*
X58293000Y-51894802D01*
X58247054Y-52005453D01*
X58246486Y-52655694D01*
X58293000Y-52768266D01*
X58293000Y-54434802D01*
X58247054Y-54545453D01*
X58246486Y-55195694D01*
X58293000Y-55308266D01*
X58293000Y-56974802D01*
X58247054Y-57085453D01*
X58246486Y-57735694D01*
X58293000Y-57848266D01*
X58293000Y-58674000D01*
X58293000Y-59514802D01*
X58247054Y-59625453D01*
X58246486Y-60275694D01*
X58293000Y-60388266D01*
X58293000Y-62054802D01*
X58247054Y-62165453D01*
X58246486Y-62815694D01*
X58293000Y-62928266D01*
X58293000Y-64594802D01*
X58247054Y-64705453D01*
X58246486Y-65355694D01*
X58293000Y-65468266D01*
X58293000Y-67134802D01*
X58247054Y-67245453D01*
X58246486Y-67895694D01*
X58293000Y-68008266D01*
X58293000Y-74754802D01*
X58247054Y-74865453D01*
X58246486Y-75515694D01*
X58293000Y-75628266D01*
X58293000Y-77294802D01*
X58247054Y-77405453D01*
X58246486Y-78055694D01*
X58293000Y-78168266D01*
X58293000Y-79121000D01*
X58964190Y-79121000D01*
X59554713Y-79366206D01*
X60204954Y-79366774D01*
X60799772Y-79121000D01*
X69124190Y-79121000D01*
X69714713Y-79366206D01*
X70364954Y-79366774D01*
X70959772Y-79121000D01*
X73025000Y-79121000D01*
X73025000Y-83058000D01*
X73025000Y-83137648D01*
X72640167Y-82995955D01*
X72014172Y-83020951D01*
X71755000Y-83128303D01*
X71755000Y-81407000D01*
X57736045Y-81407000D01*
X57736045Y-57662167D01*
X57711049Y-57036172D01*
X57519580Y-56573923D01*
X57258968Y-56482637D01*
X56329605Y-57412000D01*
X57258968Y-58341363D01*
X57519580Y-58250077D01*
X57736045Y-57662167D01*
X57736045Y-81407000D01*
X57522625Y-81407000D01*
X57449499Y-81333873D01*
X57354669Y-81294593D01*
X57484272Y-81165217D01*
X57724526Y-80586621D01*
X57725073Y-79960127D01*
X57485829Y-79381113D01*
X57107104Y-79001727D01*
X57484272Y-78625217D01*
X57724526Y-78046621D01*
X57725073Y-77420127D01*
X57485829Y-76841113D01*
X57107104Y-76461727D01*
X57484272Y-76085217D01*
X57724526Y-75506621D01*
X57725073Y-74880127D01*
X57485829Y-74301113D01*
X57043217Y-73857728D01*
X56464621Y-73617474D01*
X55838127Y-73616927D01*
X55259113Y-73856171D01*
X54996191Y-74118633D01*
X54996681Y-73419000D01*
X55184526Y-72966621D01*
X55185073Y-72340127D01*
X54997754Y-71886782D01*
X54998463Y-70874709D01*
X55184526Y-70426621D01*
X55185073Y-69800127D01*
X54999530Y-69351079D01*
X55000244Y-68330419D01*
X55184526Y-67886621D01*
X55185073Y-67260127D01*
X55001305Y-66815375D01*
X55002026Y-65786129D01*
X55184526Y-65346621D01*
X55185073Y-64720127D01*
X55003080Y-64279672D01*
X55003253Y-64033399D01*
X55083890Y-64066800D01*
X55336509Y-64066800D01*
X57216109Y-64066800D01*
X57449498Y-63970127D01*
X57628127Y-63791499D01*
X57724800Y-63558110D01*
X57724800Y-63305491D01*
X57724800Y-61425891D01*
X57628127Y-61192502D01*
X57449499Y-61013873D01*
X57354669Y-60974593D01*
X57484272Y-60845217D01*
X57724526Y-60266621D01*
X57725073Y-59640127D01*
X57485829Y-59061113D01*
X57044885Y-58619398D01*
X57079363Y-58520968D01*
X56150000Y-57591605D01*
X55220637Y-58520968D01*
X55255313Y-58619964D01*
X55006869Y-58867974D01*
X55007000Y-58682044D01*
X55007000Y-58329442D01*
X55041032Y-58341363D01*
X55970395Y-57412000D01*
X55041032Y-56482637D01*
X55007000Y-56494557D01*
X55007000Y-56141941D01*
X55006827Y-55955880D01*
X55255114Y-56204601D01*
X55220637Y-56303032D01*
X56150000Y-57232395D01*
X57079363Y-56303032D01*
X57044686Y-56204035D01*
X57484272Y-55765217D01*
X57724526Y-55186621D01*
X57725073Y-54560127D01*
X57485829Y-53981113D01*
X57043217Y-53537728D01*
X56464621Y-53297474D01*
X55838127Y-53296927D01*
X55259113Y-53536171D01*
X55004822Y-53790018D01*
X55004165Y-53080976D01*
X55184526Y-52646621D01*
X55185073Y-52020127D01*
X55002775Y-51578932D01*
X55001819Y-50546627D01*
X55184526Y-50106621D01*
X55185073Y-49480127D01*
X55000418Y-49033228D01*
X54999472Y-48012278D01*
X55184526Y-47566621D01*
X55185073Y-46940127D01*
X54998060Y-46487523D01*
X54997126Y-45477930D01*
X55184526Y-45026621D01*
X55185073Y-44400127D01*
X54995703Y-43941819D01*
X54991118Y-38989000D01*
X74886183Y-38989000D01*
X74500728Y-39373783D01*
X74260474Y-39952379D01*
X74259927Y-40578873D01*
X74499171Y-41157887D01*
X74941783Y-41601272D01*
X75520379Y-41841526D01*
X76146873Y-41842073D01*
X76725887Y-41602829D01*
X77105272Y-41224104D01*
X77481783Y-41601272D01*
X78060379Y-41841526D01*
X78686873Y-41842073D01*
X79265887Y-41602829D01*
X79707601Y-41161885D01*
X79778798Y-41186823D01*
M02*
